<?xml version="1.0" encoding="UTF-8" standalone="no"?>
<!-- Created with Inkscape (http://www.inkscape.org/) -->

<svg
   width="85.923859mm"
   height="106.55325mm"
   viewBox="0 0 85.923857 106.55324"
   version="1.1"
   id="svg5"
   inkscape:version="1.1.2 (1:1.1+202202050950+0a00cf5339)"
   sodipodi:docname="dingxiang.svg"
   inkscape:export-filename="/home/landry/repos/restaurant/src/assets/icons/dingxiang.png"
   inkscape:export-xdpi="96"
   inkscape:export-ydpi="96"
   xmlns:inkscape="http://www.inkscape.org/namespaces/inkscape"
   xmlns:sodipodi="http://sodipodi.sourceforge.net/DTD/sodipodi-0.dtd"
   xmlns="http://www.w3.org/2000/svg"
   xmlns:svg="http://www.w3.org/2000/svg">
  <sodipodi:namedview
     id="namedview7"
     pagecolor="#f3f3f3"
     bordercolor="#d7d7d7"
     borderopacity="1"
     inkscape:pageshadow="0"
     inkscape:pageopacity="0"
     inkscape:pagecheckerboard="0"
     inkscape:document-units="mm"
     showgrid="false"
     borderlayer="true"
     fit-margin-top="0"
     fit-margin-left="0"
     fit-margin-right="0"
     fit-margin-bottom="0"
     inkscape:zoom="1.0444209"
     inkscape:cx="94.310635"
     inkscape:cy="217.82406"
     inkscape:window-width="2560"
     inkscape:window-height="1016"
     inkscape:window-x="0"
     inkscape:window-y="0"
     inkscape:window-maximized="1"
     inkscape:current-layer="g1986" />
  <defs
     id="defs2">
    <inkscape:path-effect
       effect="bend_path"
       id="path-effect2916"
       is_visible="true"
       lpeversion="1"
       bendpath="m 152.74341,158.92161 9.0243,-10.17265"
       prop_scale="1"
       scale_y_rel="false"
       vertical="false"
       hide_knot="false" />
  </defs>
  <g
     inkscape:label="Layer 1"
     inkscape:groupmode="layer"
     id="layer1"
     transform="translate(-104.16325,-51.290369)">
    <g
       id="g1986"
       style="stroke-width:1.2;stroke-miterlimit:4;stroke-dasharray:none"
       transform="matrix(0.95893495,0.02898751,-0.02898751,0.95893495,-153.52311,-71.006066)">
      <path
         style="fill:#ffffff;stroke:#000000;stroke-width:0.471686px;stroke-linecap:butt;stroke-linejoin:miter;stroke-miterlimit:4;stroke-dasharray:none;stroke-opacity:1"
         d="m 317.29266,147.64922 c 0.4421,-1.01612 1.42908,-1.88766 2.59318,-1.81764 1.8214,-0.10724 2.94266,1.75883 2.49831,3.40281 l -0.26835,0.80878 -1.75964,1.06727 -2.52571,-0.74754 -0.706,-1.23946 z"
         id="path1041-3-7-3-6-9-2-0-3-0-2"
         sodipodi:nodetypes="cccccccc"
         inkscape:transform-center-x="-3.8021839"
         inkscape:transform-center-y="-3.8949663" />
      <path
         style="fill:none;stroke:#000000;stroke-width:0.82898;stroke-linecap:butt;stroke-linejoin:miter;stroke-miterlimit:4;stroke-dasharray:none;stroke-opacity:1"
         d="m 285.29276,227.78309 c 1.15096,-4.51012 3.66853,-8.5982 5.55541,-12.84823 3.25056,-6.83714 6.9135,-13.49396 10.1026,-20.34523 4.30774,-13.11757 8.72071,-26.20308 12.99616,-39.32953 1.26651,-4.61951 2.80847,-9.17876 3.90149,-13.83621 0.34734,-2.32572 0.6947,-4.65146 1.04206,-6.97718"
         id="path1023" />
      <path
         style="fill:#ffffff;stroke:#000000;stroke-width:0.471686px;stroke-linecap:butt;stroke-linejoin:miter;stroke-miterlimit:4;stroke-dasharray:none;stroke-opacity:1"
         d="m 317.7338,162.34571 c -1.08287,-1.96052 -1.55413,-4.19887 -1.1485,-6.41482 0.45588,-2.2744 0.15514,-4.54041 -0.14298,-6.78785 0.0715,-2.59208 2.66478,-0.54734 2.35892,0.9493 0.47649,-1.21247 1.99252,-1.84348 1.86264,0.0635 0.16299,2.11676 2.23178,-2.40396 2.08504,0.0609 -1.28191,3.08715 -1.65379,6.44044 -2.65663,9.60587 -0.4654,0.98224 -1.08995,2.50877 -2.35812,2.52354 z"
         id="path1039-6-5-5-2-1-7-9-6-6-6"
         inkscape:transform-center-x="-3.4609814"
         inkscape:transform-center-y="2.412684" />
      <path
         style="fill:none;stroke:#000000;stroke-width:0.471686px;stroke-linecap:butt;stroke-linejoin:miter;stroke-opacity:1"
         d="m 310.00566,167.85553 7.50014,-3.43395 0.2283,-2.07552"
         id="path1025" />
      <path
         style="fill:#ffffff;stroke:#000000;stroke-width:0.471686px;stroke-linecap:butt;stroke-linejoin:miter;stroke-miterlimit:4;stroke-dasharray:none;stroke-opacity:1"
         d="m 329.79333,148.79497 c 0.94028,-0.58639 2.24746,-0.74464 3.16665,-0.0268 1.56118,0.94434 1.42671,3.11724 0.12862,4.21948 l -0.67965,0.514 -2.05459,-0.11852 -1.65666,-2.04781 0.12127,-1.42129 z"
         id="path1041-3-7-3-6-9-2-0-3-0"
         sodipodi:nodetypes="cccccccc"
         inkscape:transform-center-x="-5.3479882"
         inkscape:transform-center-y="-1.0351521" />
      <path
         style="fill:none;stroke:#000000;stroke-width:0.471686px;stroke-linecap:butt;stroke-linejoin:miter;stroke-opacity:1"
         d="m 321.82391,161.15094 -4.31811,3.27064 2.22152,0.51341"
         id="path1027" />
      <path
         style="fill:none;stroke:#000000;stroke-width:0.471686px;stroke-linecap:butt;stroke-linejoin:miter;stroke-opacity:1"
         d="m 310.00566,167.85553 -6.94895,-8.85776"
         id="path1029" />
      <path
         style="fill:none;stroke:#000000;stroke-width:0.471686px;stroke-linecap:butt;stroke-linejoin:miter;stroke-opacity:1"
         d="m 302.77033,154.85452 0.28638,4.14325 -3.18747,-3.69205"
         id="path1031" />
      <path
         style="fill:none;stroke:#000000;stroke-width:0.471686px;stroke-linecap:butt;stroke-linejoin:miter;stroke-opacity:1"
         d="m 312.66894,159.30529 7.83589,-7.01931"
         id="path1033" />
      <path
         style="fill:none;stroke:#000000;stroke-width:0.471686px;stroke-linecap:butt;stroke-linejoin:miter;stroke-opacity:1"
         d="m 312.66894,159.30529 -1.94001,-8.41839"
         id="path1035" />
      <path
         style="fill:none;stroke:#000000;stroke-width:0.471686px;stroke-linecap:butt;stroke-linejoin:miter;stroke-opacity:1"
         d="m 320.58327,142.42751 -3.81364,2.25759 -1.67641,-4.28749"
         id="path1037" />
      <path
         style="fill:#ffffff;stroke:#000000;stroke-width:0.471686px;stroke-linecap:butt;stroke-linejoin:miter;stroke-opacity:1"
         d="m 322.45683,122.71303 c -0.19259,-1.09128 -0.94865,-2.16927 -2.09641,-2.37351 -1.746,-0.52966 -3.27205,1.02292 -3.22402,2.72514 l 0.072,0.84909 1.46168,1.44871 2.63042,-0.137 0.97605,-1.04026 z"
         id="path1041"
         sodipodi:nodetypes="cccccccc" />
      <path
         style="fill:#ffffff;stroke:#000000;stroke-width:0.471686px;stroke-linecap:butt;stroke-linejoin:miter;stroke-opacity:1"
         d="m 318.5954,136.9 c 1.51083,-1.65339 2.49185,-3.71973 2.61536,-5.96899 0.0879,-2.318 0.90951,-4.45111 1.72449,-6.56673 0.53513,-2.53721 -2.46327,-1.15457 -2.51536,0.37211 -0.18025,-1.29016 -1.50693,-2.25781 -1.82598,-0.37329 -0.65275,2.02018 -1.60854,-2.85877 -2.04154,-0.42825 0.52554,3.30115 0.10381,6.6486 0.33963,9.96065 0.22248,1.0639 0.47395,2.69398 1.70348,3.00454 z"
         id="path1039" />
      <path
         style="fill:#ffffff;stroke:#000000;stroke-width:0.471686px;stroke-linecap:butt;stroke-linejoin:miter;stroke-miterlimit:4;stroke-dasharray:none;stroke-opacity:1"
         d="m 329.62461,130.83289 c 0.24388,-1.08098 -0.0371,-2.36732 -1.01697,-2.99903 -1.40593,-1.16296 -3.41322,-0.32028 -4.02638,1.26839 l -0.26148,0.81103 0.78868,1.90086 2.47919,0.88967 1.30209,-0.58255 z"
         id="path1041-3"
         sodipodi:nodetypes="cccccccc" />
      <path
         style="fill:#ffffff;stroke:#000000;stroke-width:0.471686px;stroke-linecap:butt;stroke-linejoin:miter;stroke-miterlimit:4;stroke-dasharray:none;stroke-opacity:1"
         d="m 320.5832,142.42746 c 2.03219,-0.94156 3.73519,-2.46862 4.71788,-4.49562 0.97644,-2.10414 2.55816,-3.7544 4.12705,-5.39106 1.47357,-2.13365 -1.82618,-2.0164 -2.46391,-0.6283 0.33207,-1.25967 -0.51792,-2.66463 -1.54007,-1.04961 -1.38237,1.6113 -0.37954,-3.25822 -1.71771,-1.18354 -0.79029,3.24795 -2.47221,6.17276 -3.53397,9.31884 -0.2057,1.0673 -0.60337,2.66797 0.4108,3.42934 z"
         id="path1039-6" />
      <path
         style="fill:#ffffff;stroke:#000000;stroke-width:0.471686px;stroke-linecap:butt;stroke-linejoin:miter;stroke-miterlimit:4;stroke-dasharray:none;stroke-opacity:1"
         d="m 307.20248,127.99128 c -0.13939,-1.09933 0.26348,-2.35291 1.29983,-2.88771 1.51072,-1.02312 3.4282,0.009 3.88655,1.64783 l 0.18268,0.83231 -0.96693,1.8167 -2.55293,0.64844 -1.24038,-0.70451 z"
         id="path1041-3-7"
         sodipodi:nodetypes="cccccccc" />
      <path
         style="fill:#ffffff;stroke:#000000;stroke-width:0.471686px;stroke-linecap:butt;stroke-linejoin:miter;stroke-miterlimit:4;stroke-dasharray:none;stroke-opacity:1"
         d="m 315.09322,140.39761 c -1.93278,-1.13163 -3.48189,-2.81462 -4.26616,-4.92632 -0.77067,-2.1879 -2.18726,-3.98189 -3.59237,-5.76114 -1.2627,-2.26483 2.0107,-1.83247 2.51271,-0.38971 -0.21005,-1.28566 0.77043,-2.60287 1.63341,-0.89746 1.2219,1.73613 0.6895,-3.207 1.82305,-1.01381 0.47595,3.30868 1.87033,6.38095 2.62629,9.6142 0.10261,1.08207 0.34539,2.71343 -0.73698,3.37431 z"
         id="path1039-6-5" />
      <path
         style="fill:#ffffff;stroke:#000000;stroke-width:0.471686px;stroke-linecap:butt;stroke-linejoin:miter;stroke-miterlimit:4;stroke-dasharray:none;stroke-opacity:1"
         d="m 298.46397,132.35253 c -0.13939,-1.09933 0.26347,-2.35292 1.29982,-2.88771 1.51072,-1.02311 3.4282,0.009 3.88656,1.64783 l 0.18269,0.83231 -0.96693,1.8167 -2.55295,0.64844 -1.24035,-0.70452 z"
         id="path1041-3-7-1"
         sodipodi:nodetypes="cccccccc" />
      <path
         style="fill:#ffffff;stroke:#000000;stroke-width:0.471686px;stroke-linecap:butt;stroke-linejoin:miter;stroke-miterlimit:4;stroke-dasharray:none;stroke-opacity:1"
         d="m 306.35473,144.75886 c -1.9328,-1.13164 -3.48189,-2.81462 -4.26619,-4.92633 -0.77066,-2.18791 -2.18724,-3.98188 -3.59236,-5.76113 -1.26271,-2.26482 2.0107,-1.83247 2.51271,-0.38972 -0.21006,-1.28566 0.77043,-2.60287 1.63343,-0.89745 1.22187,1.73613 0.68948,-3.20699 1.82303,-1.01381 0.47596,3.30867 1.87033,6.38095 2.6263,9.6142 0.10262,1.08207 0.34538,2.71342 -0.73699,3.37429 z"
         id="path1039-6-5-8" />
      <path
         style="fill:#ffffff;stroke:#000000;stroke-width:0.471686px;stroke-linecap:butt;stroke-linejoin:miter;stroke-miterlimit:4;stroke-dasharray:none;stroke-opacity:1"
         d="m 316.892,133.8955 c 0.35026,-1.05132 0.19828,-2.3593 -0.71452,-3.08512 -1.28339,-1.2969 -3.36451,-0.65791 -4.13251,0.86204 l -0.3402,0.78127 0.59584,1.96985 2.37854,1.13163 1.35352,-0.45031 z"
         id="path1041-3-7-1-7"
         sodipodi:nodetypes="cccccccc"
         inkscape:transform-center-x="-1.0461581"
         inkscape:transform-center-y="0.45510551" />
      <path
         style="fill:#ffffff;stroke:#000000;stroke-width:0.471686px;stroke-linecap:butt;stroke-linejoin:miter;stroke-miterlimit:4;stroke-dasharray:none;stroke-opacity:1"
         d="m 306.74298,144.53404 c 2.11573,-0.73489 3.96205,-2.08517 5.14135,-4.00444 1.1807,-1.99668 2.91861,-3.48155 4.6424,-4.95415 1.67835,-1.97665 -1.61674,-2.18795 -2.38929,-0.87005 0.45539,-1.22056 -0.25049,-2.70293 -1.42812,-1.19747 -1.53566,1.46591 -0.0539,-3.27982 -1.59154,-1.34843 -1.10926,3.15333 -3.07346,5.89649 -4.44269,8.92149 -0.3107,1.04156 -0.86551,2.59478 0.0679,3.45317 z"
         id="path1039-6-5-8-9"
         inkscape:transform-center-x="1.7963285"
         inkscape:transform-center-y="5.3608819" />
      <path
         style="fill:#ffffff;stroke:#000000;stroke-width:0.471686px;stroke-linecap:butt;stroke-linejoin:miter;stroke-miterlimit:4;stroke-dasharray:none;stroke-opacity:1"
         d="m 296.89317,136.18812 c -0.99292,-0.49203 -2.30932,-0.52227 -3.15424,0.28158 -1.46171,1.09198 -1.11628,3.24141 0.28302,4.21194 l 0.7268,0.44489 2.03325,-0.31809 1.44929,-2.19945 -0.25906,-1.40272 z"
         id="path1041-3-7-1-7-2"
         sodipodi:nodetypes="cccccccc"
         inkscape:transform-center-x="-0.60618887"
         inkscape:transform-center-y="-1.0204588" />
      <path
         style="fill:#ffffff;stroke:#000000;stroke-width:0.471686px;stroke-linecap:butt;stroke-linejoin:miter;stroke-miterlimit:4;stroke-dasharray:none;stroke-opacity:1"
         d="m 306.02807,147.70914 c -0.43565,-2.19693 -1.51798,-4.21205 -3.25599,-5.64511 -1.8145,-1.44518 -3.04511,-3.37151 -4.26555,-5.28214 -1.72588,-1.93525 -2.39024,1.29908 -1.19172,2.24621 -1.1459,-0.61967 -2.71161,-0.12519 -1.38321,1.24903 1.23976,1.72343 -3.25591,-0.39912 -1.55533,1.39009 2.96992,1.53411 5.4155,3.85837 8.2224,5.63224 0.98875,0.45146 2.45038,1.2156 3.42939,0.41032 z"
         id="path1039-6-5-8-9-0"
         inkscape:transform-center-x="-4.745467"
         inkscape:transform-center-y="2.6465098" />
      <path
         style="fill:#ffffff;stroke:#000000;stroke-width:0.471686px;stroke-linecap:butt;stroke-linejoin:miter;stroke-miterlimit:4;stroke-dasharray:none;stroke-opacity:1"
         d="m 327.73963,139.486 c 0.90448,-0.64024 2.2002,-0.87451 3.15968,-0.21166 1.61363,0.85165 1.60617,3.02869 0.37459,4.20479 l -0.64851,0.55282 -2.058,0.002 -1.77333,-1.94763 0.0382,-1.42598 z"
         id="path1041-3-7-3"
         sodipodi:nodetypes="cccccccc" />
      <path
         style="fill:#ffffff;stroke:#000000;stroke-width:0.471686px;stroke-linecap:butt;stroke-linejoin:miter;stroke-miterlimit:4;stroke-dasharray:none;stroke-opacity:1"
         d="m 321.82391,161.15094 c 0.21963,-2.22895 1.10055,-4.33991 2.69111,-5.93523 1.66509,-1.61503 2.70222,-3.65205 3.73084,-5.67244 1.52864,-2.09457 2.50538,1.06006 1.40482,2.11945 1.07998,-0.72851 2.68653,-0.38875 1.49835,1.10834 -1.06596,1.83601 3.20141,-0.71479 1.68295,1.2324 -2.80638,1.81604 -5.01394,4.36745 -7.63478,6.40627 -0.93995,0.54576 -2.32032,1.44848 -3.37328,0.74165 z"
         id="path1039-6-5-5-2-1-7-9-6-6"
         inkscape:transform-center-x="-1.4242559"
         inkscape:transform-center-y="2.8483619" />
      <path
         style="fill:#ffffff;stroke:#000000;stroke-width:0.471686px;stroke-linecap:butt;stroke-linejoin:miter;stroke-miterlimit:4;stroke-dasharray:none;stroke-opacity:1"
         d="m 320.50483,152.28598 c 0.0891,-2.23795 0.84541,-4.39672 2.33977,-6.0823 1.56803,-1.70946 2.48454,-3.8035 3.39346,-5.8805 1.40439,-2.17981 2.56301,0.91206 1.5261,2.03385 1.03564,-0.79026 2.65926,-0.54482 1.56044,1.01908 -0.95707,1.89505 3.15425,-0.90048 1.7523,1.13166 -2.69563,1.97668 -4.75056,4.65259 -7.24791,6.8409 -0.90653,0.59968 -2.23184,1.58141 -3.32424,0.93725 z"
         id="path1039-6-5-5" />
      <path
         style="fill:#ffffff;stroke:#000000;stroke-width:0.471686px;stroke-linecap:butt;stroke-linejoin:miter;stroke-miterlimit:4;stroke-dasharray:none;stroke-opacity:1"
         d="m 336.77455,147.64142 c 1.10699,0.0503 2.27336,0.66142 2.62333,1.77386 0.75014,1.66324 -0.59304,3.37654 -2.28734,3.54807 l -0.85129,0.0378 -1.6249,-1.26295 -0.20292,-2.62618 0.90597,-1.10182 z"
         id="path1041-3-7-3-6"
         sodipodi:nodetypes="cccccccc"
         inkscape:transform-center-x="-5.1327979"
         inkscape:transform-center-y="2.19763" />
      <path
         style="fill:#ffffff;stroke:#000000;stroke-width:0.471686px;stroke-linecap:butt;stroke-linejoin:miter;stroke-miterlimit:4;stroke-dasharray:none;stroke-opacity:1"
         d="m 323.20295,153.29766 c 1.44508,-1.71115 3.36788,-2.95012 5.58248,-3.36225 2.2874,-0.38573 4.29691,-1.47515 6.28999,-2.55579 2.44719,-0.85738 1.4622,2.29409 -0.0452,2.54236 1.30264,0.012 2.43308,1.20361 0.60535,1.7627 -1.91931,0.90746 3.04209,1.22704 0.68758,1.96937 -3.34136,-0.0962 -6.6066,0.7532 -9.92146,0.9459 -1.08372,-0.0837 -2.73257,-0.12314 -3.19885,-1.30244 z"
         id="path1039-6-5-5-2"
         inkscape:transform-center-x="1.619135"
         inkscape:transform-center-y="2.6108314" />
      <path
         style="fill:#ffffff;stroke:#000000;stroke-width:0.471686px;stroke-linecap:butt;stroke-linejoin:miter;stroke-miterlimit:4;stroke-dasharray:none;stroke-opacity:1"
         d="m 333.29895,159.2789 c 1.10697,0.0503 2.27335,0.66141 2.62333,1.77388 0.75013,1.66322 -0.59304,3.37651 -2.28733,3.54804 l -0.85131,0.0378 -1.62488,-1.26296 -0.20295,-2.62618 0.90597,-1.10183 z"
         id="path1041-3-7-3-6-9"
         sodipodi:nodetypes="cccccccc"
         inkscape:transform-center-x="-5.1327938"
         inkscape:transform-center-y="2.1976216" />
      <path
         style="fill:#ffffff;stroke:#000000;stroke-width:0.471686px;stroke-linecap:butt;stroke-linejoin:miter;stroke-miterlimit:4;stroke-dasharray:none;stroke-opacity:1"
         d="m 319.72736,164.93515 c 1.44505,-1.71117 3.36788,-2.9501 5.58247,-3.36225 2.28738,-0.38573 4.2969,-1.47515 6.28998,-2.55578 2.44719,-0.85739 1.4622,2.29407 -0.0451,2.54236 1.30265,0.012 2.43308,1.20359 0.60537,1.76267 -1.91931,0.90747 3.0421,1.22706 0.68757,1.96939 -3.34134,-0.0962 -6.6066,0.75319 -9.92147,0.94591 -1.08369,-0.0837 -2.73256,-0.12315 -3.19884,-1.30246 z"
         id="path1039-6-5-5-2-1"
         inkscape:transform-center-x="1.6190279"
         inkscape:transform-center-y="2.6108466" />
      <path
         style="fill:#ffffff;stroke:#000000;stroke-width:0.471686px;stroke-linecap:butt;stroke-linejoin:miter;stroke-miterlimit:4;stroke-dasharray:none;stroke-opacity:1"
         d="m 294.37627,141.66722 c -0.8126,-0.75338 -2.0664,-1.15563 -3.10459,-0.62439 -1.71138,0.63258 -1.98963,2.79179 -0.92297,4.11931 l 0.57036,0.6331 2.04002,0.27152 2.01351,-1.69814 0.14931,-1.41864 z"
         id="path1041-3-7-3-6-9-2"
         sodipodi:nodetypes="cccccccc"
         inkscape:transform-center-x="4.9026475"
         inkscape:transform-center-y="-2.3324475" />
      <path
         style="fill:#ffffff;stroke:#000000;stroke-width:0.471686px;stroke-linecap:butt;stroke-linejoin:miter;stroke-miterlimit:4;stroke-dasharray:none;stroke-opacity:1"
         d="m 299.86924,155.30572 c 0.20521,-2.2303 -0.26128,-4.46964 -1.52156,-6.33669 -1.3302,-1.90039 -1.96405,-4.09658 -2.59261,-6.27488 -1.10627,-2.34521 -2.66051,0.56791 -1.77975,1.81607 -0.92301,-0.91934 -2.56482,-0.88902 -1.68066,0.80552 0.70017,2.00423 -3.00885,-1.30644 -1.88563,0.89199 2.41301,2.31326 4.09909,5.23564 6.28778,7.73265 0.82001,0.71347 2.00508,1.86058 3.17254,1.36529 z"
         id="path1039-6-5-5-2-1-7"
         inkscape:transform-center-x="2.5699068"
         inkscape:transform-center-y="2.7670053" />
      <path
         style="fill:none;stroke:#000000;stroke-width:0.471686px;stroke-linecap:butt;stroke-linejoin:miter;stroke-opacity:1"
         d="m 311.76796,155.20053 -5.02492,-10.66637"
         id="path2319" />
      <path
         style="fill:#ffffff;stroke:#000000;stroke-width:0.471686px;stroke-linecap:butt;stroke-linejoin:miter;stroke-miterlimit:4;stroke-dasharray:none;stroke-opacity:1"
         d="m 308.77384,141.43292 c -0.0219,-1.10791 -0.6027,-2.28961 -1.70578,-2.66808 -1.64337,-0.79267 -3.39068,0.50596 -3.60573,2.19528 l -0.0597,0.85003 1.22073,1.65686 2.6201,0.27045 1.12475,-0.87734 z"
         id="path1041-3-7-3-6-9-2-0"
         sodipodi:nodetypes="cccccccc"
         inkscape:transform-center-x="1.7907536"
         inkscape:transform-center-y="-5.2579337" />
      <path
         style="fill:#ffffff;stroke:#000000;stroke-width:0.471686px;stroke-linecap:butt;stroke-linejoin:miter;stroke-miterlimit:4;stroke-dasharray:none;stroke-opacity:1"
         d="m 302.77033,154.85452 c 1.74779,-1.40058 3.03579,-3.29088 3.50476,-5.49415 0.44445,-2.2767 1.58521,-4.25753 2.71672,-6.22214 0.92006,-2.42433 -2.25568,-1.52073 -2.54266,-0.0204 0.0211,-1.30255 -1.1406,-2.46324 -1.74649,-0.65054 -0.95664,1.89528 -1.1484,-3.07266 -1.95108,-0.73794 0.0103,3.34269 -0.92292,6.58504 -1.20083,9.89384 0.0558,1.08549 0.0527,2.73483 1.2197,3.23132 z"
         id="path1039-6-5-5-2-1-7-9"
         inkscape:transform-center-x="2.6499576"
         inkscape:transform-center-y="1.19608" />
      <path
         style="fill:#ffffff;stroke:#000000;stroke-width:0.471686px;stroke-linecap:butt;stroke-linejoin:miter;stroke-miterlimit:4;stroke-dasharray:none;stroke-opacity:1"
         d="m 309.26585,146.5024 c 0.8047,-0.76183 2.05421,-1.17715 3.09788,-0.6568 1.71792,0.61464 2.0187,2.77084 0.96598,4.10945 l -0.56371,0.63902 -2.03707,0.29283 -2.03116,-1.67703 -0.16419,-1.41698 z"
         id="path1041-3-7-3-6-9-2-0-3"
         sodipodi:nodetypes="cccccccc"
         inkscape:transform-center-x="-5.0262596"
         inkscape:transform-center-y="-2.0938326" />
      <path
         style="fill:#ffffff;stroke:#000000;stroke-width:0.471686px;stroke-linecap:butt;stroke-linejoin:miter;stroke-miterlimit:4;stroke-dasharray:none;stroke-opacity:1"
         d="m 303.91567,160.19755 c -0.2285,-2.22804 0.21456,-4.47213 1.45528,-6.35226 1.31025,-1.91417 1.9211,-4.11688 2.52692,-6.30159 1.08107,-2.35697 2.66628,0.54009 1.79864,1.79736 0.91334,-0.92893 2.55537,-0.91578 1.68901,0.78786 -0.67913,2.01148 2.99505,-1.3378 1.89461,0.87272 -2.3887,2.33836 -4.04416,5.27816 -6.20664,7.79793 -0.81251,0.72195 -1.98553,1.8814 -3.15812,1.39833 z"
         id="path1039-6-5-5-2-1-7-9-6"
         inkscape:transform-center-x="-2.3687995"
         inkscape:transform-center-y="2.7948159" />
      <path
         style="fill:none;stroke:#000000;stroke-width:0.471686px;stroke-linecap:butt;stroke-linejoin:miter;stroke-opacity:1"
         d="m 320.50483,152.28598 2.6981,1.01153"
         id="path2105" />
      <path
         style="fill:#ffffff;stroke:#000000;stroke-width:0.471686px;stroke-linecap:butt;stroke-linejoin:miter;stroke-opacity:1"
         d="m 299.21069,197.97791 c 3.40566,-1.52908 6.3984,-4.94554 10.45034,-4.3002 3.24277,1.26138 6.75147,1.8397 10.23705,1.51332 8.73771,-0.68667 17.65653,-3.22164 24.42921,-9.00489 6.64564,-4.48641 11.63429,-10.86051 17.13588,-16.58932 -0.81301,-2.10955 -3.86539,0.28947 -5.59581,0.15888 -2.11915,-0.26016 -4.28192,-0.0826 -6.44881,0.0154 -5.21061,0.25904 -10.49489,0.30606 -15.60544,1.41599 -4.51833,1.48601 -9.50363,2.68907 -12.7347,6.4635 -4.2103,3.87568 -8.38593,7.81492 -12.08637,12.19024 -0.56282,1.17791 -1.52964,2.82712 -2.0923,4.00511"
         id="path2434"
         sodipodi:nodetypes="ccccccccccc" />
      <path
         style="fill:#ffffff;stroke:#000000;stroke-width:0.471686px;stroke-linecap:butt;stroke-linejoin:miter;stroke-miterlimit:4;stroke-dasharray:none;stroke-opacity:1"
         d="m 299.21069,197.97791 c -1.30022,-3.49943 -0.96601,-8.02898 -4.26898,-10.46312 -3.17448,-1.42458 -6.04817,-3.51946 -8.26141,-6.23191 -5.64185,-6.70735 -10.09389,-14.84065 -10.72567,-23.7241 -1.46663,-7.88301 -0.42559,-15.90997 -0.20426,-23.84959 2.0735,-0.90097 2.50604,2.95715 3.81325,4.09848 1.67232,1.32732 3.06346,2.99277 4.51458,4.60494 3.47165,3.89429 7.14603,7.69228 9.94124,12.11229 2.11166,4.26197 4.75259,8.65808 4.33054,13.60867 0.1929,5.71929 0.31623,11.45849 -0.20462,17.16508 -0.44427,1.22755 -0.94097,3.07361 -1.38544,4.30107"
         id="path2434-2"
         sodipodi:nodetypes="ccccccccccc" />
      <path
         style="fill:none;stroke:#000000;stroke-width:0.178276;stroke-linecap:butt;stroke-linejoin:miter;stroke-miterlimit:4;stroke-dasharray:none;stroke-opacity:1"
         d="m 306.89974,193.84521 c 12.52036,-5.2388 25.76991,-9.76929 37.3786,-15.88727 4.04819,-2.09329 8.0964,-4.18655 12.1446,-6.27986"
         id="path2984"
         sodipodi:nodetypes="ccc" />
      <path
         style="fill:none;stroke:#000000;stroke-width:0.178276;stroke-linecap:butt;stroke-linejoin:miter;stroke-miterlimit:4;stroke-dasharray:none;stroke-opacity:1"
         d="m 296.75992,189.59972 c -5.39297,-12.81365 -12.14802,-26.2014 -14.90845,-37.77968 -1.34913,-4.35312 -2.69822,-8.70624 -4.04733,-13.05935"
         id="path2984-7"
         sodipodi:nodetypes="ccc" />
    </g>
  </g>
</svg>
