<?xml version="1.0" encoding="UTF-8" standalone="no"?>
<!-- Created with Inkscape (http://www.inkscape.org/) -->

<svg
   width="85.923859mm"
   height="106.55325mm"
   viewBox="0 0 85.923857 106.55324"
   version="1.1"
   id="svg5"
   inkscape:version="1.1.2 (1:1.1+202202050950+0a00cf5339)"
   sodipodi:docname="dingxiang.svg"
   inkscape:export-filename="/home/landry/repos/restaurant/src/assets/icons/dingxiang.png"
   inkscape:export-xdpi="96"
   inkscape:export-ydpi="96"
   xmlns:inkscape="http://www.inkscape.org/namespaces/inkscape"
   xmlns:sodipodi="http://sodipodi.sourceforge.net/DTD/sodipodi-0.dtd"
   xmlns="http://www.w3.org/2000/svg"
   xmlns:svg="http://www.w3.org/2000/svg">
  <sodipodi:namedview
     id="namedview7"
     pagecolor="#f3f3f3"
     bordercolor="#d7d7d7"
     borderopacity="1"
     inkscape:pageshadow="0"
     inkscape:pageopacity="0"
     inkscape:pagecheckerboard="0"
     inkscape:document-units="mm"
     showgrid="false"
     borderlayer="true"
     fit-margin-top="0"
     fit-margin-left="0"
     fit-margin-right="0"
     fit-margin-bottom="0"
     inkscape:zoom="1.0444209"
     inkscape:cx="94.310637"
     inkscape:cy="217.82406"
     inkscape:window-width="1698"
     inkscape:window-height="662"
     inkscape:window-x="1175"
     inkscape:window-y="130"
     inkscape:window-maximized="0"
     inkscape:current-layer="g1986" />
  <defs
     id="defs2">
    <inkscape:path-effect
       effect="bend_path"
       id="path-effect2916"
       is_visible="true"
       lpeversion="1"
       bendpath="m 152.74341,158.92161 9.0243,-10.17265"
       prop_scale="1"
       scale_y_rel="false"
       vertical="false"
       hide_knot="false" />
  </defs>
  <g
     inkscape:label="Layer 1"
     inkscape:groupmode="layer"
     id="layer1"
     transform="translate(-104.16325,-51.290369)">
    <g
       id="g1986"
       style="stroke-width:1.2;stroke-miterlimit:4;stroke-dasharray:none"
       transform="matrix(0.95893495,0.02898751,-0.02898751,0.95893495,-153.52311,-71.006066)">
      <path
         style="fill:#ffffff;stroke:#000000;stroke-width:0.471686px;stroke-linecap:butt;stroke-linejoin:miter;stroke-miterlimit:4;stroke-dasharray:none;stroke-opacity:1"
         d="m 323.60531,151.94895 c 0.62508,-0.915 1.75819,-1.58565 2.88842,-1.29823 1.80913,0.23677 2.55994,2.28022 1.81473,3.81149 l -0.41549,0.74398 -1.92878,0.71778 -2.34035,-1.20863 -0.46064,-1.35 z"
         id="path1041-3-7-3-6-9-2-0-3-0-2"
         sodipodi:nodetypes="cccccccc"
         inkscape:transform-center-x="-4.4385818"
         inkscape:transform-center-y="-3.0888618" />
      <path
         style="fill:none;stroke:#000000;stroke-width:0.82898;stroke-linecap:butt;stroke-linejoin:miter;stroke-miterlimit:4;stroke-dasharray:none;stroke-opacity:1"
         d="m 277.12395,224.64636 c 1.97758,-4.21367 5.21818,-7.75614 7.86973,-11.57613 4.47688,-6.10493 9.32493,-11.9553 13.7441,-18.08565 6.69485,-12.07502 13.48704,-24.09879 20.15185,-36.18861 2.11162,-4.29941 4.48247,-8.48791 6.43081,-12.85717 0.77798,-2.21909 1.55599,-4.4382 2.33399,-6.65729"
         id="path1023" />
      <path
         style="fill:#ffffff;stroke:#000000;stroke-width:0.471686px;stroke-linecap:butt;stroke-linejoin:miter;stroke-miterlimit:4;stroke-dasharray:none;stroke-opacity:1"
         d="m 321.27826,166.46674 c -0.69536,-2.12901 -0.73782,-4.41604 0.0768,-6.51637 0.87495,-2.1483 1.00517,-4.43046 1.13448,-6.6939 0.55708,-2.53252 2.72016,-0.0371 2.13864,1.37547 0.69574,-1.1014 2.30331,-1.43644 1.81756,0.41221 -0.23748,2.1097 2.64358,-1.942 2.0365,0.45144 -1.83894,2.79143 -2.83402,6.0152 -4.41355,8.93593 -0.64161,0.87735 -1.54176,2.25941 -2.79014,2.03572 z"
         id="path1039-6-5-5-2-1-7-9-6-6-6"
         inkscape:transform-center-x="-3.0972833"
         inkscape:transform-center-y="2.6367676" />
      <path
         style="fill:none;stroke:#000000;stroke-width:0.471686px;stroke-linecap:butt;stroke-linejoin:miter;stroke-opacity:1"
         d="m 312.65279,170.42698 8.01164,-1.96414 0.61406,-1.9957"
         id="path1025" />
      <path
         style="fill:#ffffff;stroke:#000000;stroke-width:0.471686px;stroke-linecap:butt;stroke-linejoin:miter;stroke-miterlimit:4;stroke-dasharray:none;stroke-opacity:1"
         d="m 335.66831,155.42222 c 1.03368,-0.39935 2.34732,-0.30926 3.11532,0.56845 1.35603,1.22075 0.81583,3.32973 -0.66618,4.16854 l -0.76409,0.3772 -1.99577,-0.50231 -1.24255,-2.32253 0.38606,-1.37321 z"
         id="path1041-3-7-3-6-9-2-0-3-0"
         sodipodi:nodetypes="cccccccc"
         inkscape:transform-center-x="-5.4470534"
         inkscape:transform-center-y="0.055917802" />
      <path
         style="fill:none;stroke:#000000;stroke-width:0.471686px;stroke-linecap:butt;stroke-linejoin:miter;stroke-opacity:1"
         d="m 325.51999,166.06145 -4.85556,2.40139 2.08555,0.92153"
         id="path1027" />
      <path
         style="fill:none;stroke:#000000;stroke-width:0.471686px;stroke-linecap:butt;stroke-linejoin:miter;stroke-opacity:1"
         d="M 312.65279,170.42698 307.4912,160.42169"
         id="path1029" />
      <path
         style="fill:none;stroke:#000000;stroke-width:0.471686px;stroke-linecap:butt;stroke-linejoin:miter;stroke-opacity:1"
         d="m 307.98812,156.29839 -0.49692,4.1233 -2.43729,-4.22502"
         id="path1031" />
      <path
         style="fill:none;stroke:#000000;stroke-width:0.471686px;stroke-linecap:butt;stroke-linejoin:miter;stroke-opacity:1"
         d="m 316.8746,162.52914 9.01482,-5.42263"
         id="path1033" />
      <path
         style="fill:none;stroke:#000000;stroke-width:0.471686px;stroke-linecap:butt;stroke-linejoin:miter;stroke-opacity:1"
         d="m 316.8746,162.52914 -0.32431,-8.63295"
         id="path1035" />
      <path
         style="fill:none;stroke:#000000;stroke-width:0.471686px;stroke-linecap:butt;stroke-linejoin:miter;stroke-opacity:1"
         d="m 327.81811,147.43822 -4.16979,1.50113 -0.84129,-4.52606"
         id="path1037" />
      <path
         style="fill:#ffffff;stroke:#000000;stroke-width:0.471686px;stroke-linecap:butt;stroke-linejoin:miter;stroke-opacity:1"
         d="m 333.36116,128.4265 c 0.0158,-1.10803 -0.52433,-2.30884 -1.6133,-2.72502 -1.61545,-0.84817 -3.40595,0.39015 -3.67849,2.07109 l -0.0888,0.84751 1.16357,1.69746 2.60934,0.35949 1.15406,-0.83842 z"
         id="path1041"
         sodipodi:nodetypes="cccccccc" />
      <path
         style="fill:#ffffff;stroke:#000000;stroke-width:0.471686px;stroke-linecap:butt;stroke-linejoin:miter;stroke-opacity:1"
         d="m 326.90381,141.63572 c 1.79449,-1.3402 3.14616,-3.1855 3.68993,-5.37154 0.52171,-2.26023 1.72934,-4.20106 2.92718,-6.12596 1.00215,-2.39154 -2.20258,-1.59668 -2.54048,-0.10695 0.0653,-1.30106 -1.05605,-2.50067 -1.72337,-0.70961 -1.02057,1.86162 -1.04297,-3.11001 -1.92478,-0.80408 -0.10384,3.34111 -1.14679,6.54978 -1.53725,9.84717 0.0187,1.08676 -0.0405,2.73506 1.10885,3.27102 z"
         id="path1039" />
      <path
         style="fill:#ffffff;stroke:#000000;stroke-width:0.471686px;stroke-linecap:butt;stroke-linejoin:miter;stroke-miterlimit:4;stroke-dasharray:none;stroke-opacity:1"
         d="m 338.87628,137.74812 c 0.44257,-1.01593 0.40819,-2.33215 -0.43559,-3.13666 -1.16247,-1.40633 -3.29232,-0.95566 -4.19295,0.48957 l -0.40916,0.74748 0.41762,2.01516 2.26797,1.33949 1.38833,-0.32762 z"
         id="path1041-3"
         sodipodi:nodetypes="cccccccc" />
      <path
         style="fill:#ffffff;stroke:#000000;stroke-width:0.471686px;stroke-linecap:butt;stroke-linejoin:miter;stroke-miterlimit:4;stroke-dasharray:none;stroke-opacity:1"
         d="m 327.81805,147.43816 c 2.17287,-0.54311 4.13238,-1.72313 5.4783,-3.52949 1.35427,-1.88329 3.21779,-3.2071 5.06616,-4.51996 1.8481,-1.8189 -1.41495,-2.32351 -2.30205,-1.07989 0.56276,-1.17488 -0.008,-2.71449 -1.31552,-1.32019 -1.6604,1.32298 0.23919,-3.27152 -1.46484,-1.4851 -1.38627,3.04171 -3.5876,5.59856 -5.22137,8.48923 -0.4025,1.00967 -1.09373,2.50716 -0.24062,3.44546 z"
         id="path1039-6" />
      <path
         style="fill:#ffffff;stroke:#000000;stroke-width:0.471686px;stroke-linecap:butt;stroke-linejoin:miter;stroke-miterlimit:4;stroke-dasharray:none;stroke-opacity:1"
         d="m 317.38692,130.7457 c 0.0696,-1.10595 0.70072,-2.26155 1.81907,-2.59218 1.676,-0.72117 3.3655,0.65273 3.50788,2.34848 l 0.0231,0.85181 -1.29094,1.60276 -2.62928,0.1574 -1.08599,-0.92494 z"
         id="path1041-3-7"
         sodipodi:nodetypes="cccccccc" />
      <path
         style="fill:#ffffff;stroke:#000000;stroke-width:0.471686px;stroke-linecap:butt;stroke-linejoin:miter;stroke-miterlimit:4;stroke-dasharray:none;stroke-opacity:1"
         d="m 322.80703,144.41329 c -1.68583,-1.47451 -2.89127,-3.4185 -3.26496,-5.63993 -0.34601,-2.29371 -1.40044,-4.32184 -2.44636,-6.33333 -0.81484,-2.46169 2.31909,-1.42221 2.54119,0.0892 0.0352,-1.30223 1.24559,-2.41185 1.7729,-0.5747 0.87407,1.93473 1.27958,-3.02042 1.98102,-0.65336 -0.15396,3.33919 0.63856,6.61868 0.77379,9.93638 -0.10246,1.08208 -0.17041,2.73001 -1.35764,3.17583 z"
         id="path1039-6-5" />
      <path
         style="fill:#ffffff;stroke:#000000;stroke-width:0.471686px;stroke-linecap:butt;stroke-linejoin:miter;stroke-miterlimit:4;stroke-dasharray:none;stroke-opacity:1"
         d="m 307.98478,133.38804 c 0.0696,-1.10595 0.70072,-2.26156 1.81907,-2.59218 1.67599,-0.72116 3.3655,0.65273 3.50789,2.34849 l 0.0231,0.85181 -1.29094,1.60275 -2.62931,0.1574 -1.08595,-0.92495 z"
         id="path1041-3-7-1"
         sodipodi:nodetypes="cccccccc" />
      <path
         style="fill:#ffffff;stroke:#000000;stroke-width:0.471686px;stroke-linecap:butt;stroke-linejoin:miter;stroke-miterlimit:4;stroke-dasharray:none;stroke-opacity:1"
         d="m 313.40492,147.05564 c -1.68585,-1.47453 -2.89127,-3.41851 -3.26499,-5.63995 -0.346,-2.29372 -1.40042,-4.32182 -2.44635,-6.33332 -0.81486,-2.46168 2.31909,-1.4222 2.54119,0.0892 0.0351,-1.30223 1.24559,-2.41184 1.77292,-0.57468 0.87404,1.93472 1.27955,-3.02042 1.981,-0.65336 -0.15395,3.33918 0.63856,6.61867 0.77379,9.93637 -0.10244,1.08209 -0.17041,2.73 -1.35764,3.17581 z"
         id="path1039-6-5-8" />
      <path
         style="fill:#ffffff;stroke:#000000;stroke-width:0.471686px;stroke-linecap:butt;stroke-linejoin:miter;stroke-miterlimit:4;stroke-dasharray:none;stroke-opacity:1"
         d="m 325.79504,138.36475 c 0.54149,-0.96682 0.63788,-2.28007 -0.12234,-3.16441 -1.01697,-1.51487 -3.18107,-1.27814 -4.22088,0.0705 l -0.48088,0.70347 0.21525,2.04671 2.12366,1.55823 1.41401,-0.18807 z"
         id="path1041-3-7-1-7"
         sodipodi:nodetypes="cccccccc"
         inkscape:transform-center-x="-1.0131248"
         inkscape:transform-center-y="0.65250576" />
      <path
         style="fill:#ffffff;stroke:#000000;stroke-width:0.471686px;stroke-linecap:butt;stroke-linejoin:miter;stroke-miterlimit:4;stroke-dasharray:none;stroke-opacity:1"
         d="m 313.82849,146.90774 c 2.2161,-0.32443 4.28318,-1.3039 5.80197,-2.96751 1.53471,-1.73938 3.52058,-2.87141 5.49028,-3.99403 2.01974,-1.62624 -1.17702,-2.45267 -2.18335,-1.30333 0.67653,-1.11331 0.26164,-2.70187 -1.17779,-1.44439 -1.78366,1.15139 0.56308,-3.23157 -1.30995,-1.62336 -1.68179,2.88886 -4.12626,5.21428 -6.03928,7.92827 -0.5008,0.96467 -1.33747,2.38604 -0.5819,3.40447 z"
         id="path1039-6-5-8-9"
         inkscape:transform-center-x="2.9474209"
         inkscape:transform-center-y="4.4981075" />
      <path
         style="fill:#ffffff;stroke:#000000;stroke-width:0.471686px;stroke-linecap:butt;stroke-linejoin:miter;stroke-miterlimit:4;stroke-dasharray:none;stroke-opacity:1"
         d="m 305.72153,136.86033 c -0.88284,-0.66976 -2.17013,-0.94671 -3.15099,-0.31586 -1.6408,0.798 -1.70523,2.97406 -0.51312,4.19013 l 0.63031,0.57348 2.0568,0.0695 1.83661,-1.8881 0.009,-1.42641 z"
         id="path1041-3-7-1-7-2"
         sodipodi:nodetypes="cccccccc"
         inkscape:transform-center-x="-0.77911141"
         inkscape:transform-center-y="-0.93395311" />
      <path
         style="fill:#ffffff;stroke:#000000;stroke-width:0.471686px;stroke-linecap:butt;stroke-linejoin:miter;stroke-miterlimit:4;stroke-dasharray:none;stroke-opacity:1"
         d="m 312.52994,149.89206 c -0.0153,-2.23966 -0.69984,-4.4222 -2.13776,-6.1562 -1.51077,-1.76026 -2.35767,-3.88344 -3.19753,-5.9893 -1.33168,-2.22496 -2.5917,0.82702 -1.5924,1.98241 -1.00912,-0.82387 -2.63984,-0.63227 -1.59319,0.967 0.894,1.92561 -3.123,-1.00355 -1.78874,1.07322 2.62892,2.06463 4.59443,4.80686 7.0182,7.07636 0.88636,0.62913 2.17846,1.6542 3.29129,1.04713 z"
         id="path1039-6-5-8-9-0"
         inkscape:transform-center-x="-3.7608145"
         inkscape:transform-center-y="3.742259" />
      <path
         style="fill:#ffffff;stroke:#000000;stroke-width:0.471686px;stroke-linecap:butt;stroke-linejoin:miter;stroke-miterlimit:4;stroke-dasharray:none;stroke-opacity:1"
         d="m 335.39959,145.89319 c 1.00864,-0.45896 2.3253,-0.4457 3.14321,0.38557 1.42495,1.13957 1.00872,3.27646 -0.42184,4.20031 l -0.7408,0.42118 -2.02175,-0.38458 -1.37596,-2.24604 0.30535,-1.39342 z"
         id="path1041-3-7-3"
         sodipodi:nodetypes="cccccccc" />
      <path
         style="fill:#ffffff;stroke:#000000;stroke-width:0.471686px;stroke-linecap:butt;stroke-linejoin:miter;stroke-miterlimit:4;stroke-dasharray:none;stroke-opacity:1"
         d="m 325.51999,166.06145 c 0.63437,-2.14803 1.89609,-4.05596 3.75798,-5.32415 1.9388,-1.27354 3.34007,-3.07951 4.72986,-4.87075 1.89484,-1.77018 2.26169,1.51176 0.98174,2.34559 1.19759,-0.5127 2.71173,0.12276 1.26351,1.37004 -1.39183,1.60312 3.27869,-0.10077 1.42153,1.52656 -3.09753,1.25662 -5.74502,3.34799 -8.70215,4.85827 -1.02573,0.35951 -2.55108,0.9869 -3.45255,0.0949 z"
         id="path1039-6-5-5-2-1-7-9-6-6"
         inkscape:transform-center-x="-0.47138443"
         inkscape:transform-center-y="2.8185885" />
      <path
         style="fill:#ffffff;stroke:#000000;stroke-width:0.471686px;stroke-linecap:butt;stroke-linejoin:miter;stroke-miterlimit:4;stroke-dasharray:none;stroke-opacity:1"
         d="m 325.88942,157.10651 c 0.50786,-2.18139 1.65617,-4.15969 3.44053,-5.53459 1.8612,-1.38453 3.1547,-3.26916 4.43756,-5.13848 1.78881,-1.87724 2.34609,1.37722 1.11693,2.28429 1.16564,-0.58168 2.71427,-0.0357 1.34126,1.29403 -1.29597,1.68157 3.26725,-0.29201 1.50857,1.44064 -3.01892,1.4352 -5.53988,3.67753 -8.4038,5.35783 -1.00303,0.41874 -2.48914,1.13408 -3.44111,0.2962 z"
         id="path1039-6-5-5" />
      <path
         style="fill:#ffffff;stroke:#000000;stroke-width:0.471686px;stroke-linecap:butt;stroke-linejoin:miter;stroke-miterlimit:4;stroke-dasharray:none;stroke-opacity:1"
         d="m 342.74195,155.60043 c 1.07784,0.25732 2.10867,1.07664 2.24347,2.23501 0.42439,1.77454 -1.21668,3.20506 -2.91304,3.05531 l -0.84324,-0.12276 -1.35877,-1.54567 0.29394,-2.61755 1.0968,-0.91205 z"
         id="path1041-3-7-3-6"
         sodipodi:nodetypes="cccccccc"
         inkscape:transform-center-x="-4.5759551"
         inkscape:transform-center-y="3.1089563" />
      <path
         style="fill:#ffffff;stroke:#000000;stroke-width:0.471686px;stroke-linecap:butt;stroke-linejoin:miter;stroke-miterlimit:4;stroke-dasharray:none;stroke-opacity:1"
         d="m 328.34951,158.60695 c 1.74075,-1.40928 3.86204,-2.26505 6.11463,-2.25389 2.31914,0.0508 4.49751,-0.64184 6.65809,-1.3289 2.56467,-0.38249 1.00529,2.52789 -0.52191,2.48862 1.2772,0.25645 2.16371,1.63918 0.2635,1.84503 -2.05559,0.53082 2.75748,1.77657 0.30545,2.06346 -3.26383,-0.72207 -6.63049,-0.50107 -9.92255,-0.93441 -1.04871,-0.28576 -2.66081,-0.63419 -2.89729,-1.88008 z"
         id="path1039-6-5-5-2"
         inkscape:transform-center-x="2.1301871"
         inkscape:transform-center-y="3.0302109" />
      <path
         style="fill:#ffffff;stroke:#000000;stroke-width:0.471686px;stroke-linecap:butt;stroke-linejoin:miter;stroke-miterlimit:4;stroke-dasharray:none;stroke-opacity:1"
         d="m 337.14242,166.378 c 1.07782,0.25732 2.10866,1.07663 2.24346,2.23503 0.42439,1.77451 -1.21667,3.20503 -2.91302,3.05529 l -0.84326,-0.12277 -1.35875,-1.54567 0.29392,-2.61757 1.09679,-0.91205 z"
         id="path1041-3-7-3-6-9"
         sodipodi:nodetypes="cccccccc"
         inkscape:transform-center-x="-4.5759613"
         inkscape:transform-center-y="3.1089533" />
      <path
         style="fill:#ffffff;stroke:#000000;stroke-width:0.471686px;stroke-linecap:butt;stroke-linejoin:miter;stroke-miterlimit:4;stroke-dasharray:none;stroke-opacity:1"
         d="m 322.74999,169.38453 c 1.74073,-1.4093 3.86204,-2.26503 6.11462,-2.25389 2.31912,0.0507 4.4975,-0.64184 6.65807,-1.3289 2.56468,-0.38249 1.0053,2.52788 -0.52181,2.48865 1.27722,0.25645 2.16372,1.63915 0.26353,1.845 -2.05559,0.53083 2.75749,1.7766 0.30544,2.06348 -3.26381,-0.72207 -6.63049,-0.50108 -9.92256,-0.9344 -1.04869,-0.28575 -2.6608,-0.6342 -2.89728,-1.8801 z"
         id="path1039-6-5-5-2-1"
         inkscape:transform-center-x="2.1301441"
         inkscape:transform-center-y="3.030229" />
      <path
         style="fill:#ffffff;stroke:#000000;stroke-width:0.471686px;stroke-linecap:butt;stroke-linejoin:miter;stroke-miterlimit:4;stroke-dasharray:none;stroke-opacity:1"
         d="m 302.22032,141.76919 c -0.65664,-0.89259 -1.81257,-1.52318 -2.93206,-1.19639 -1.79974,0.29989 -2.47858,2.36841 -1.68025,3.87265 l 0.4413,0.72895 1.95272,0.64985 2.29662,-1.28973 0.41311,-1.36535 z"
         id="path1041-3-7-3-6-9-2"
         sodipodi:nodetypes="cccccccc"
         inkscape:transform-center-x="4.3587208"
         inkscape:transform-center-y="-3.2023183" />
      <path
         style="fill:#ffffff;stroke:#000000;stroke-width:0.471686px;stroke-linecap:butt;stroke-linejoin:miter;stroke-miterlimit:4;stroke-dasharray:none;stroke-opacity:1"
         d="m 305.05391,156.19667 c 0.62046,-2.15206 0.58287,-4.43917 -0.3043,-6.5097 -0.94959,-2.11641 -1.15967,-4.39256 -1.36791,-6.65015 -0.6461,-2.51126 -2.71983,0.0581 -2.08917,1.44947 -0.73391,-1.07634 -2.3522,-1.35493 -1.80205,0.47552 0.31127,2.10006 -2.70992,-1.84832 -2.0196,0.52195 1.93558,2.72531 3.04276,5.91236 4.7235,8.77602 0.67141,0.85478 1.61994,2.20406 2.85965,1.93686 z"
         id="path1039-6-5-5-2-1-7"
         inkscape:transform-center-x="3.161166"
         inkscape:transform-center-y="2.6108344" />
      <path
         style="fill:none;stroke:#000000;stroke-width:0.471686px;stroke-linecap:butt;stroke-linejoin:miter;stroke-opacity:1"
         d="m 316.76063,158.3282 -2.93211,-11.42033"
         id="path2319" />
      <path
         style="fill:#ffffff;stroke:#000000;stroke-width:0.471686px;stroke-linecap:butt;stroke-linejoin:miter;stroke-miterlimit:4;stroke-dasharray:none;stroke-opacity:1"
         d="m 316.40566,144.24325 c 0.18658,-1.0923 -0.16193,-2.36206 -1.17429,-2.94098 -1.46524,-1.08722 -3.42537,-0.13989 -3.95388,1.47898 l -0.2183,0.82368 0.88781,1.85666 2.52267,0.75775 1.26952,-0.65047 z"
         id="path1041-3-7-3-6-9-2-0"
         sodipodi:nodetypes="cccccccc"
         inkscape:transform-center-x="0.82455173"
         inkscape:transform-center-y="-5.4231413" />
      <path
         style="fill:#ffffff;stroke:#000000;stroke-width:0.471686px;stroke-linecap:butt;stroke-linejoin:miter;stroke-miterlimit:4;stroke-dasharray:none;stroke-opacity:1"
         d="m 307.98812,156.29839 c 1.97974,-1.04738 3.59986,-2.66212 4.47431,-4.73809 0.86415,-2.15271 2.35666,-3.88402 3.83703,-5.60115 1.35903,-2.20837 -1.92991,-1.91733 -2.49358,-0.4976 0.26537,-1.27541 -0.65765,-2.63363 -1.59322,-0.967 -1.29559,1.68188 -0.55085,-3.23367 -1.77775,-1.09126 -0.61772,3.28513 -2.14332,6.2945 -3.03775,9.49222 -0.14907,1.07665 -0.4619,2.69605 0.59108,3.4029 z"
         id="path1039-6-5-5-2-1-7-9"
         inkscape:transform-center-x="2.7547512"
         inkscape:transform-center-y="0.24054399" />
      <path
         style="fill:#ffffff;stroke:#000000;stroke-width:0.471686px;stroke-linecap:butt;stroke-linejoin:miter;stroke-miterlimit:4;stroke-dasharray:none;stroke-opacity:1"
         d="m 315.93675,149.31492 c 0.93347,-0.59713 2.23875,-0.77037 3.16611,-0.0633 1.5719,0.92637 1.46235,3.10069 0.17694,4.21775 l -0.6737,0.52177 -2.05581,-0.095 -1.68003,-2.02868 0.10487,-1.4226 z"
         id="path1041-3-7-3-6-9-2-0-3"
         sodipodi:nodetypes="cccccccc"
         inkscape:transform-center-x="-5.3371881"
         inkscape:transform-center-y="-1.1023066" />
      <path
         style="fill:#ffffff;stroke:#000000;stroke-width:0.471686px;stroke-linecap:butt;stroke-linejoin:miter;stroke-miterlimit:4;stroke-dasharray:none;stroke-opacity:1"
         d="m 308.10953,161.76145 c 0.19404,-2.2313 1.05071,-4.35224 2.62248,-5.96587 1.64646,-1.63401 2.66015,-3.68279 3.66553,-5.71483 1.50452,-2.11197 2.51739,1.03127 1.42904,2.1032 1.07156,-0.74085 2.6819,-0.41952 1.51098,1.09107 -1.04485,1.84813 3.19301,-0.75145 1.69697,1.21304 -2.78538,1.84809 -4.96354,4.42464 -7.56081,6.4934 -0.93365,0.5565 -2.30356,1.47499 -3.36455,0.78028 z"
         id="path1039-6-5-5-2-1-7-9-6"
         inkscape:transform-center-x="-1.4805475"
         inkscape:transform-center-y="2.8475841" />
      <path
         style="fill:none;stroke:#000000;stroke-width:0.471686px;stroke-linecap:butt;stroke-linejoin:miter;stroke-opacity:1"
         d="m 325.88942,157.10651 2.4601,1.50029"
         id="path2105" />
      <path
         style="fill:#ffffff;stroke:#000000;stroke-width:0.471686px;stroke-linecap:butt;stroke-linejoin:miter;stroke-opacity:1"
         d="m 296.39227,197.98573 c 3.63225,-0.86221 7.21341,-3.65576 11.07203,-2.26086 2.94814,1.848 6.28578,3.07504 9.77063,3.40914 8.71117,0.96669 17.94739,0.152 25.68576,-4.25626 7.37002,-3.15837 13.46709,-8.48204 19.94677,-13.07557 -0.40232,-2.22471 -3.85097,-0.44169 -5.52607,-0.89497 -2.03257,-0.65356 -4.1902,-0.88537 -6.33693,-1.19611 -5.16653,-0.72424 -10.3656,-1.67057 -15.59366,-1.54027 -4.71703,0.61092 -9.83957,0.85622 -13.72206,3.9566 -4.86331,3.01592 -9.7045,6.10077 -14.16087,9.7032 -0.77404,1.05123 -2.03341,2.4895 -2.80731,3.54085"
         id="path2434"
         sodipodi:nodetypes="ccccccccccc" />
      <path
         style="fill:#ffffff;stroke:#000000;stroke-width:0.471686px;stroke-linecap:butt;stroke-linejoin:miter;stroke-miterlimit:4;stroke-dasharray:none;stroke-opacity:1"
         d="m 296.39227,197.98573 c -0.61981,-3.68136 0.55921,-8.06753 -2.22779,-11.07872 -2.85042,-1.99546 -5.2795,-4.59281 -6.94389,-7.67268 -4.28165,-7.64765 -7.12683,-16.47239 -6.07885,-25.31641 0.0401,-8.01818 2.57023,-15.70675 4.27887,-23.4635 2.20582,-0.49548 1.90602,3.37522 2.97559,4.74176 1.39326,1.61779 2.44683,3.51489 3.56933,5.37092 2.67842,4.47704 5.57406,8.89757 7.48935,13.76392 1.27358,4.58274 3.04182,9.39664 1.69745,14.17985 -0.88475,5.65374 -1.84157,11.31396 -3.42497,16.82116 -0.66693,1.12226 -1.50152,2.84217 -2.16863,3.96431"
         id="path2434-2"
         sodipodi:nodetypes="ccccccccccc" />
      <path
         style="fill:none;stroke:#000000;stroke-width:0.178276;stroke-linecap:butt;stroke-linejoin:miter;stroke-miterlimit:4;stroke-dasharray:none;stroke-opacity:1"
         d="m 304.72069,195.37076 c 13.2815,-2.79396 27.14618,-4.75525 39.69737,-8.58397 4.36931,-1.29569 8.73863,-2.59135 13.10796,-3.88706"
         id="path2984"
         sodipodi:nodetypes="ccc" />
      <path
         style="fill:none;stroke:#000000;stroke-width:0.178276;stroke-linecap:butt;stroke-linejoin:miter;stroke-miterlimit:4;stroke-dasharray:none;stroke-opacity:1"
         d="m 295.55873,189.29634 c -2.89029,-13.59853 -7.0106,-28.01677 -7.54724,-39.90746 -0.5075,-4.52905 -1.01496,-9.05808 -1.52245,-13.58711"
         id="path2984-7"
         sodipodi:nodetypes="ccc" />
    </g>
  </g>
</svg>
