<?xml version="1.0" encoding="UTF-8" standalone="no"?>
<!-- Created with Inkscape (http://www.inkscape.org/) -->

<svg
   width="165.75868mm"
   height="162.35475mm"
   viewBox="0 0 165.75868 162.35475"
   version="1.1"
   id="svg5"
   inkscape:version="1.1.2 (1:1.1+202202050950+0a00cf5339)"
   sodipodi:docname="huajiao.svg"
   inkscape:export-filename="/home/landry/repos/restaurant/src/assets/icons/huajiao.png"
   inkscape:export-xdpi="96"
   inkscape:export-ydpi="96"
   xmlns:inkscape="http://www.inkscape.org/namespaces/inkscape"
   xmlns:sodipodi="http://sodipodi.sourceforge.net/DTD/sodipodi-0.dtd"
   xmlns="http://www.w3.org/2000/svg"
   xmlns:svg="http://www.w3.org/2000/svg">
  <sodipodi:namedview
     id="namedview7"
     pagecolor="#f3f3f3"
     bordercolor="#d7d7d7"
     borderopacity="1"
     inkscape:pageshadow="0"
     inkscape:pageopacity="0"
     inkscape:pagecheckerboard="0"
     inkscape:document-units="mm"
     showgrid="false"
     borderlayer="true"
     fit-margin-top="0"
     fit-margin-left="0"
     fit-margin-right="0"
     fit-margin-bottom="0"
     inkscape:zoom="0.73851711"
     inkscape:cx="309.4038"
     inkscape:cy="397.41801"
     inkscape:window-width="2560"
     inkscape:window-height="1016"
     inkscape:window-x="0"
     inkscape:window-y="0"
     inkscape:window-maximized="1"
     inkscape:current-layer="g1986" />
  <defs
     id="defs2" />
  <g
     inkscape:label="Layer 1"
     inkscape:groupmode="layer"
     id="layer1"
     transform="translate(-62.254327,-36.377855)">
    <g
       id="g1986"
       style="stroke-width:1.2;stroke-miterlimit:4;stroke-dasharray:none"
       transform="matrix(0.95893495,0.02898751,-0.02898751,0.95893495,-153.52311,-71.006066)">
      <path
         style="fill:#ffffff;stroke:#000000;stroke-width:0.569606px;stroke-linecap:butt;stroke-linejoin:miter;stroke-miterlimit:4;stroke-dasharray:none;stroke-opacity:1"
         d="m 295.40965,129.96215 c -1.73582,0.36769 -3.79969,2.88655 -5.35874,1.86072 -0.80685,-1.80311 -2.13104,-4.91693 -0.0166,-6.20237 1.62919,0.70796 2.73046,2.31516 4.19458,3.33489 0.39336,0.3356 0.78693,0.6712 1.18019,1.00676 z"
         id="path3878-2-9" />
      <path
         style="fill:#ffffff;stroke:#000000;stroke-width:0.569606px;stroke-linecap:butt;stroke-linejoin:miter;stroke-miterlimit:4;stroke-dasharray:none;stroke-opacity:1"
         d="m 295.40961,129.96211 c -0.44621,-2.37333 -2.77185,-4.85712 -1.49767,-7.26129 1.49882,-0.91687 4.30808,-0.51712 5.2921,0.94587 0.23068,2.02207 -2.06107,2.94647 -2.74274,4.65934 -0.35292,0.5505 -0.69575,1.1075 -1.05165,1.65612 z"
         id="path3579-8-7" />
      <path
         style="fill:none;stroke:#000000;stroke-width:0.596337;stroke-linecap:butt;stroke-linejoin:miter;stroke-miterlimit:4;stroke-dasharray:none;stroke-opacity:1"
         d="m 363.04806,257.00883 c -13.67441,-4.05661 -27.21353,-8.60198 -40.85592,-12.72779 -13.74538,-2.11573 -27.48529,-4.46569 -41.34752,-5.65283 -7.31273,-0.21759 -14.63017,-0.26999 -21.9437,-0.49905"
         id="path1095" />
      <path
         style="fill:#ffffff;stroke:#000000;stroke-width:0.381349px;stroke-linecap:butt;stroke-linejoin:miter;stroke-opacity:1"
         d="m 342.89908,250.81938 c 2.95773,-3.1312 8.47756,-6.06061 6.91184,-11.28922 -0.22823,-2.56664 -1.59282,-5.93617 -4.03664,-2.77462 -4.46343,2.48232 -6.65498,8.69688 -3.47083,12.99981 l 0.2902,0.53573 z"
         id="path1097" />
      <path
         style="fill:#ffffff;stroke:#000000;stroke-width:0.381349px;stroke-linecap:butt;stroke-linejoin:miter;stroke-opacity:1"
         d="m 342.89908,250.81938 c 0.92641,3.75507 4.31836,7.22394 3.49146,11.19629 -2.32252,2.12887 -7.77089,2.87434 -6.52608,-1.9316 -0.10205,-3.02927 -3.50889,-10.19925 2.06872,-9.23963 z"
         id="path1099" />
      <path
         style="fill:#ffffff;stroke:#000000;stroke-width:0.381349px;stroke-linecap:butt;stroke-linejoin:miter;stroke-miterlimit:4;stroke-dasharray:none;stroke-opacity:1"
         d="m 330.4417,246.84531 c -0.9264,-3.75505 -4.31835,-7.22392 -3.49146,-11.19629 2.3225,-2.12887 7.77088,-2.87432 6.52607,1.93161 0.10205,3.02925 3.50889,10.19923 -2.06871,9.23964 z"
         id="path1099-6" />
      <path
         style="fill:#ffffff;stroke:#000000;stroke-width:0.381349px;stroke-linecap:butt;stroke-linejoin:miter;stroke-opacity:1"
         d="m 317.36666,243.32846 c 1.6926,-3.07425 5.48412,-5.50923 4.81756,-9.4006 -0.40676,-2.52559 -2.57842,-10.41789 -5.30053,-4.96635 -3.48801,3.31446 -6.37886,10.68375 -0.69601,13.40845 l 0.62024,0.45916 z"
         id="path1101" />
      <path
         style="fill:#ffffff;stroke:#000000;stroke-width:0.381349px;stroke-linecap:butt;stroke-linejoin:miter;stroke-opacity:1"
         d="m 317.36666,243.32846 c 0.10631,4.31854 -0.25488,11.85118 -6.17423,11.61308 -2.90917,-0.83194 -8.27248,-0.54342 -6.32429,-5.14849 -0.78567,-5.20395 4.79622,-9.09523 9.5732,-6.98466 0.97065,0.19622 1.93929,0.41319 2.92532,0.52007 z"
         id="path1104" />
      <path
         style="fill:#ffffff;stroke:#000000;stroke-width:0.354476px;stroke-linecap:butt;stroke-linejoin:miter;stroke-opacity:1"
         d="m 300.86022,240.73305 c 1.08979,-3.21327 2.06449,-6.52567 1.43203,-9.94376 -1.74043,-3.70651 -7.03586,-3.93832 -10.77464,-3.60837 -2.96963,0.90062 -0.21215,6.54237 -0.11417,9.30889 2.07345,2.4219 4.99683,3.28426 7.98254,3.87583 0.49146,0.12243 0.98292,0.24496 1.47435,0.36741 z"
         id="path1106" />
      <path
         style="fill:#ffffff;stroke:#000000;stroke-width:0.354476px;stroke-linecap:butt;stroke-linejoin:miter;stroke-opacity:1"
         d="m 300.86022,240.73305 c -3.5264,2.26684 -9.22477,-0.50504 -11.6109,4.36719 -1.98829,2.47553 -3.52567,9.42926 0.93308,9.88487 4.1882,-0.83821 8.31859,-4.18554 9.39943,-8.44939 0.97547,-1.89694 -0.2051,-4.15942 1.27839,-5.80267 z"
         id="path1108" />
      <path
         style="fill:#ffffff;stroke:#000000;stroke-width:0.298896px;stroke-linecap:butt;stroke-linejoin:miter;stroke-opacity:1"
         d="m 285.00439,239.23896 c -1.49805,-2.99831 0.66658,-6.32505 -2.04367,-9.07794 -2.2667,-3.74059 -6.70711,-5.72313 -11.03582,-5.52766 -3.53271,0.72266 -0.11817,5.12963 0.39834,7.28077 0.66755,3.10345 3.73039,4.25503 6.30556,5.45627 1.96781,1.96966 5.11603,-1.0509 6.37559,1.86856 z"
         id="path1110" />
      <path
         style="fill:#ffffff;stroke:#000000;stroke-width:0.381349px;stroke-linecap:butt;stroke-linejoin:miter;stroke-miterlimit:4;stroke-dasharray:none;stroke-opacity:1"
         d="m 258.90092,238.12916 c -4.26003,-0.37343 -7.19411,3.75396 -11.73072,1.82701 -5.50104,-0.93791 -9.93383,-5.27891 -11.72953,-10.50764 -0.79722,-4.53104 6.03225,-2.54314 8.82711,-2.9378 3.9958,-0.66149 6.79718,2.4339 9.42904,4.92738 3.25938,1.41266 1.14934,6.56382 5.2041,6.69105 z"
         id="path1110-3" />
      <path
         style="fill:#ffffff;stroke:#000000;stroke-width:0.298896px;stroke-linecap:butt;stroke-linejoin:miter;stroke-opacity:1"
         d="m 285.00439,239.23896 c -2.07159,2.53607 -0.25255,7.13499 -4.17123,8.46105 -3.01636,1.95186 -7.83702,2.14376 -10.41047,-0.34719 1.52453,-2.81825 2.6537,-6.58467 5.92167,-7.90558 2.88511,0.16523 5.79093,0.17907 8.66003,-0.20828 z"
         id="path1112" />
      <path
         style="fill:#ffffff;stroke:#000000;stroke-width:0.298896px;stroke-linecap:butt;stroke-linejoin:miter;stroke-miterlimit:4;stroke-dasharray:none;stroke-opacity:1"
         d="m 330.4417,246.84531 c -2.71669,1.82831 -7.12776,-0.40809 -8.81038,3.37129 -2.22221,2.82311 -2.85902,7.6053 -0.6166,10.39797 2.94711,-1.25745 6.80177,-2.03365 8.41912,-5.16554 0.10219,-2.88804 0.35707,-5.78267 1.00786,-8.60372 z"
         id="path1112-7" />
      <path
         style="fill:#ffffff;stroke:#000000;stroke-width:0.284203px;stroke-linecap:butt;stroke-linejoin:miter;stroke-opacity:1"
         d="m 268.71814,238.43762 c -2.22753,-2.56436 -0.46557,-6.21149 -2.52118,-8.99556 -2.08456,-2.64273 -5.24831,-5.60484 -8.91802,-5.26973 -2.14022,0.34549 -6.34611,-2.505 -4.29477,1.53507 0.0807,3.34019 2.46157,5.8031 4.80881,7.88949 1.6658,2.03774 4.01865,3.97306 6.79714,3.5915 1.70653,-0.5072 3.42118,-0.85421 4.12802,1.24923 z"
         id="path1114" />
      <path
         style="fill:#ffffff;stroke:#000000;stroke-width:0.284203px;stroke-linecap:butt;stroke-linejoin:miter;stroke-opacity:1"
         d="m 268.71814,238.43762 c -3.91348,0.8756 -1.01753,6.14349 -4.17817,7.75926 -2.66323,2.80439 -6.07008,4.85789 -10.035,4.85235 -2.92347,0.49908 -0.41265,-4.83924 0.68065,-6.31046 1.01416,-3.75321 4.21466,-5.25988 7.83936,-5.53547 1.92314,-0.0228 4.04379,0.57183 5.69316,-0.76568 z"
         id="path1116" />
      <path
         style="fill:none;stroke:#000000;stroke-width:0.501612;stroke-linecap:butt;stroke-linejoin:miter;stroke-miterlimit:4;stroke-dasharray:none;stroke-opacity:1"
         d="m 342.21706,212.46297 c 6.6375,-8.38316 13.57738,-16.53584 20.25413,-24.87744 5.30683,-8.97404 10.77515,-17.87897 15.46843,-27.19328 2.19147,-5.02766 4.26939,-10.1046 6.46906,-15.12961"
         id="path1095-5" />
      <path
         style="fill:#ffffff;stroke:#000000;stroke-width:0.285884px;stroke-linecap:butt;stroke-linejoin:miter;stroke-miterlimit:4;stroke-dasharray:none;stroke-opacity:1"
         d="m 352.14489,200.16972 c 1.35365,2.93157 1.85204,7.58959 5.92702,7.95881 1.84957,0.55722 4.57484,0.54777 3.05672,-2.0347 -0.48195,-3.79827 -4.19476,-7.05694 -8.07718,-6.04176 l -0.45386,0.0517 z"
         id="path1097-3" />
      <path
         style="fill:#ffffff;stroke:#000000;stroke-width:0.285884px;stroke-linecap:butt;stroke-linejoin:miter;stroke-miterlimit:4;stroke-dasharray:none;stroke-opacity:1"
         d="m 352.14489,200.16972 c -2.87126,-0.40299 -6.23125,0.98943 -8.76462,-0.69412 -0.83335,-2.20997 0.16792,-6.209 3.16472,-4.00211 2.13622,0.77418 8.0757,0.40385 5.85195,4.01713 z"
         id="path1099-5" />
      <path
         style="fill:#ffffff;stroke:#000000;stroke-width:0.285884px;stroke-linecap:butt;stroke-linejoin:miter;stroke-miterlimit:4;stroke-dasharray:none;stroke-opacity:1"
         d="m 358.38546,192.61032 c 2.8713,0.40296 6.23127,-0.98943 8.76466,0.69411 0.83334,2.20996 -0.16791,6.20899 -3.16472,4.00209 -2.13625,-0.77416 -8.07571,-0.40385 -5.85196,-4.01711 z"
         id="path1099-6-6" />
      <path
         style="fill:#ffffff;stroke:#000000;stroke-width:0.285884px;stroke-linecap:butt;stroke-linejoin:miter;stroke-miterlimit:4;stroke-dasharray:none;stroke-opacity:1"
         d="m 364.48023,184.49361 c 1.66683,2.03545 2.30345,5.35291 5.19714,5.97467 1.87083,0.42156 7.96829,1.11227 4.93443,-2.30269 -1.33318,-3.3517 -5.65439,-7.41908 -9.13565,-4.22498 l -0.49254,0.30346 z"
         id="path1101-2" />
      <path
         style="fill:#ffffff;stroke:#000000;stroke-width:0.285884px;stroke-linecap:butt;stroke-linejoin:miter;stroke-miterlimit:4;stroke-dasharray:none;stroke-opacity:1"
         d="m 364.48023,184.49361 c -3.03459,-1.13073 -8.17515,-3.48357 -6.35813,-7.53593 1.3905,-1.79213 2.68598,-5.60453 5.34681,-2.96418 3.84018,0.90513 4.99052,5.8747 2.18932,8.60978 -0.40725,0.62075 -0.82853,1.23409 -1.17798,1.89039 z"
         id="path1104-9" />
      <path
         style="fill:#ffffff;stroke:#000000;stroke-width:0.265738px;stroke-linecap:butt;stroke-linejoin:miter;stroke-miterlimit:4;stroke-dasharray:none;stroke-opacity:1"
         d="m 370.8911,173.7322 c 1.93181,1.65474 3.96471,3.25709 6.51954,3.77056 3.0646,-0.17701 4.7032,-3.79695 5.51665,-6.49054 0.20179,-2.31753 -4.49309,-1.9728 -6.44539,-2.67652 -2.26363,0.7671 -3.67924,2.56067 -4.92378,4.47321 -0.22221,0.30789 -0.4446,0.61563 -0.66695,0.92334 z"
         id="path1106-1" />
      <path
         style="fill:#ffffff;stroke:#000000;stroke-width:0.265738px;stroke-linecap:butt;stroke-linejoin:miter;stroke-miterlimit:4;stroke-dasharray:none;stroke-opacity:1"
         d="m 370.8911,173.7322 c -0.59359,-3.08612 2.92493,-6.27784 0.20034,-9.29741 -1.16789,-2.07404 -5.57744,-5.08376 -7.13834,-2.10842 -0.5852,3.1481 0.59161,6.95591 3.25695,8.89749 1.04724,1.20843 2.95137,1.01774 3.68096,2.50834 z"
         id="path1108-2" />
      <path
         style="fill:#ffffff;stroke:#000000;stroke-width:0.224068px;stroke-linecap:butt;stroke-linejoin:miter;stroke-miterlimit:4;stroke-dasharray:none;stroke-opacity:1"
         d="m 376.35417,163.11632 c 2.5042,-0.20593 4.21512,2.22834 6.8867,1.11051 3.23511,-0.53374 5.85339,-3.07031 6.92515,-6.13672 0.48269,-2.65975 -3.53631,-1.51329 -5.17722,-1.75401 -2.34567,-0.40131 -4.00145,1.40862 -5.5557,2.86535 -1.91952,0.81975 -0.69602,3.85306 -3.07884,3.91497 z"
         id="path1110-7" />
      <path
         style="fill:#ffffff;stroke:#000000;stroke-width:0.285884px;stroke-linecap:butt;stroke-linejoin:miter;stroke-miterlimit:4;stroke-dasharray:none;stroke-opacity:1"
         d="m 384.40868,145.26264 c 1.44831,-2.86005 -0.60505,-6.05309 2.00137,-8.67214 2.1873,-3.56605 6.44442,-5.4395 10.58371,-5.23017 3.37516,0.70934 0.0867,4.90678 -0.4184,6.96163 -0.6545,2.96486 -3.58984,4.05058 -6.059,5.1863 -1.8923,1.87378 -4.88786,-1.03138 -6.1076,1.75449 z"
         id="path1110-3-0" />
      <path
         style="fill:#ffffff;stroke:#000000;stroke-width:0.224068px;stroke-linecap:butt;stroke-linejoin:miter;stroke-miterlimit:4;stroke-dasharray:none;stroke-opacity:1"
         d="m 376.35417,163.11632 c -1.1868,-2.14897 -4.8942,-2.1663 -4.72376,-5.26282 -0.5166,-2.64339 0.69469,-6.0512 3.14585,-7.14691 1.53565,1.84703 3.84139,3.68347 3.8488,6.3259 -0.91987,1.96143 -1.74009,3.97951 -2.27105,6.08393 z"
         id="path1112-9" />
      <path
         style="fill:#ffffff;stroke:#000000;stroke-width:0.224068px;stroke-linecap:butt;stroke-linejoin:miter;stroke-miterlimit:4;stroke-dasharray:none;stroke-opacity:1"
         d="m 358.38546,192.61032 c -0.51432,-2.40034 2.27245,-4.84576 0.11217,-7.07095 -1.34489,-2.33354 -4.4943,-4.11105 -7.06306,-3.32982 0.0529,2.40145 -0.48249,5.30011 1.24551,7.29926 1.98106,0.87677 3.92406,1.86166 5.70543,3.10151 z"
         id="path1112-7-3" />
      <path
         style="fill:#ffffff;stroke:#000000;stroke-width:0.213055px;stroke-linecap:butt;stroke-linejoin:miter;stroke-miterlimit:4;stroke-dasharray:none;stroke-opacity:1"
         d="m 381.45525,152.00759 c 2.40578,-0.83457 4.45197,1.4089 6.96262,0.75524 2.42042,-0.71319 5.36412,-2.08817 6.15475,-4.73514 0.35665,-1.58557 3.51344,-3.71687 0.12989,-3.41662 -2.34669,-0.8756 -4.72461,0.0939 -6.83116,1.14508 -1.88264,0.59059 -3.88564,1.6878 -4.3953,3.72761 -0.1231,1.32893 -0.36008,2.6188 -2.0209,2.52383 z"
         id="path1114-6" />
      <path
         style="fill:#ffffff;stroke:#000000;stroke-width:0.213055px;stroke-linecap:butt;stroke-linejoin:miter;stroke-miterlimit:4;stroke-dasharray:none;stroke-opacity:1"
         d="m 381.45525,152.00759 c 0.48254,-2.96735 -3.99085,-2.42195 -4.2333,-5.07195 -1.20835,-2.63552 -1.68679,-5.57898 -0.5768,-8.33627 0.4683,-2.17344 3.48234,1.06292 4.20105,2.23407 2.32861,1.75277 2.48406,4.40005 1.66465,6.99909 -0.52063,1.34452 -1.52603,2.6542 -1.05553,4.17499 z"
         id="path1116-0" />
      <path
         style="fill:none;stroke:#000000;stroke-width:1.43164;stroke-linecap:butt;stroke-linejoin:miter;stroke-miterlimit:4;stroke-dasharray:none;stroke-opacity:1"
         d="m 368.36108,266.43125 c -1.65623,-1.37167 -5.30254,-9.42052 -5.30254,-9.42052 L 342.21706,212.46297 320.90742,179.7203 291.49463,145.56692"
         id="path1267" />
      <path
         style="fill:none;stroke:#000000;stroke-width:1.00107;stroke-linecap:butt;stroke-linejoin:miter;stroke-miterlimit:4;stroke-dasharray:none;stroke-opacity:1"
         d="m 320.90742,179.72031 7.36274,-16.4689 -9.17364,-14.61773"
         id="path1568" />
      <path
         style="fill:none;stroke:#000000;stroke-width:0.569606px;stroke-linecap:butt;stroke-linejoin:miter;stroke-opacity:1"
         d="M 328.27016,163.25141 343.0412,150.70473"
         id="path1570" />
      <path
         style="fill:none;stroke:#000000;stroke-width:0.569606px;stroke-linecap:butt;stroke-linejoin:miter;stroke-opacity:1"
         d="m 308.27513,147.81219 10.82139,0.82149 -2.99494,-7.8872"
         id="path1572" />
      <path
         style="fill:none;stroke:#000000;stroke-width:0.569606px;stroke-linecap:butt;stroke-linejoin:miter;stroke-opacity:1"
         d="m 319.09652,148.63368 6.0459,-10.60571"
         id="path1574" />
      <path
         style="fill:none;stroke:#000000;stroke-width:0.569606px;stroke-linecap:butt;stroke-linejoin:miter;stroke-opacity:1"
         d="m 335.28409,141.7593 7.75711,8.94543 1.53567,-12.12975"
         id="path1576" />
      <path
         style="fill:none;stroke:#000000;stroke-width:0.569606px;stroke-linecap:butt;stroke-linejoin:miter;stroke-opacity:1"
         d="m 343.0412,150.70473 13.79739,-6.33609"
         id="path1578" />
      <path
         style="fill:none;stroke:#000000;stroke-width:1.00107;stroke-linecap:butt;stroke-linejoin:miter;stroke-miterlimit:4;stroke-dasharray:none;stroke-opacity:1"
         d="m 264.45123,151.40906 27.04338,-5.84214 0.31672,-17.88563"
         id="path1580" />
      <path
         style="fill:none;stroke:#000000;stroke-width:1.00107;stroke-linecap:butt;stroke-linejoin:miter;stroke-miterlimit:4;stroke-dasharray:none;stroke-opacity:1"
         d="m 291.49461,145.56692 10.93286,-16.66329"
         id="path1582" />
      <path
         style="fill:none;stroke:#000000;stroke-width:0.569606px;stroke-linecap:butt;stroke-linejoin:miter;stroke-opacity:1"
         d="m 266.73504,139.54638 -2.28381,11.86268 -14.54109,0.8628"
         id="path1584" />
      <path
         style="fill:none;stroke:#000000;stroke-width:0.569606px;stroke-linecap:butt;stroke-linejoin:miter;stroke-opacity:1"
         d="m 264.45123,151.40906 -6.93208,-5.84099"
         id="path1586" />
      <path
         style="fill:none;stroke:#000000;stroke-width:0.569606px;stroke-linecap:butt;stroke-linejoin:miter;stroke-opacity:1"
         d="m 272.70213,130.06806 19.10922,-2.38677 -1.72087,-9.3039"
         id="path1588" />
      <path
         style="fill:none;stroke:#000000;stroke-width:0.569606px;stroke-linecap:butt;stroke-linejoin:miter;stroke-opacity:1"
         d="M 291.81135,127.68129 303.5174,115.82422"
         id="path1590" />
      <path
         style="fill:none;stroke:#000000;stroke-width:0.569606px;stroke-linecap:butt;stroke-linejoin:miter;stroke-opacity:1"
         d="m 295.40965,129.96215 7.01782,-1.05852 -0.65108,-3.73413"
         id="path1592" />
      <path
         style="fill:none;stroke:#000000;stroke-width:0.569606px;stroke-linecap:butt;stroke-linejoin:miter;stroke-opacity:1"
         d="m 302.42747,128.90363 4.66219,-5.07585"
         id="path1594" />
      <path
         style="fill:#ffffff;stroke:#000000;stroke-width:0.569606px;stroke-linecap:butt;stroke-linejoin:miter;stroke-opacity:1"
         d="m 257.51915,145.56815 c -0.15118,-1.68653 0.45241,-3.31115 0.68793,-4.96137 0.18298,-1.16642 0.21623,-2.50357 -0.57043,-3.47156 -0.35947,-0.46813 -0.92164,-0.70124 -1.3865,-1.04697 -0.77753,-0.4906 -1.60531,-1.08461 -2.5671,-1.03092 -0.81984,0.0807 -1.27258,0.88928 -1.50077,1.59538 -0.37583,0.65676 -0.66509,1.40491 -0.59317,2.17721 0.11404,1.38985 1.07962,2.51484 2.06733,3.41588 0.76938,0.70299 1.6458,1.2748 2.40684,1.98783 0.49627,0.43261 0.98588,0.87327 1.45587,1.33444 z"
         id="path1964" />
      <path
         style="fill:#ffffff;stroke:#000000;stroke-width:0.569606px;stroke-linecap:butt;stroke-linejoin:miter;stroke-miterlimit:4;stroke-dasharray:none;stroke-opacity:1"
         d="m 355.55705,145.81344 c -0.15119,-1.68651 0.4524,-3.31116 0.68791,-4.96138 0.18299,-1.16642 0.21624,-2.50357 -0.57043,-3.47155 -0.35945,-0.46814 -0.92163,-0.70122 -1.38649,-1.04698 -0.77754,-0.49059 -1.60532,-1.08462 -2.5671,-1.03091 -0.81983,0.0807 -1.27259,0.88927 -1.50078,1.59537 -0.37583,0.65676 -0.6651,1.40492 -0.59317,2.17721 0.11404,1.38986 1.07961,2.51485 2.06733,3.41591 0.76936,0.70298 1.64581,1.27477 2.40684,1.9878 0.49627,0.43261 0.98589,0.87326 1.45589,1.33444 z"
         id="path1964-0" />
      <path
         style="fill:#ffffff;stroke:#000000;stroke-width:0.569606px;stroke-linecap:butt;stroke-linejoin:miter;stroke-opacity:1"
         d="m 249.91014,152.27186 c 0.008,-3.2125 -2.64879,-6.41181 -6.04904,-5.87173 -3.38419,-0.20612 -5.12955,3.69559 -2.89096,6.15702 1.15273,2.43183 4.74123,4.19826 6.96602,2.14138 0.74634,-0.73517 1.24103,-1.67963 1.97398,-2.42667 z"
         id="path2682" />
      <path
         style="fill:#ffffff;stroke:#000000;stroke-width:0.569606px;stroke-linecap:butt;stroke-linejoin:miter;stroke-opacity:1"
         d="m 249.91014,152.27186 c 2.82289,-1.81224 6.2653,-5.77884 3.64613,-9.09458 -2.67769,-3.30425 -7.58985,-0.70814 -7.56911,3.18828 -0.69025,3.05513 1.61678,4.62284 3.92298,5.9063 z"
         id="path2981" />
      <path
         style="fill:#ffffff;stroke:#000000;stroke-width:0.569606px;stroke-linecap:butt;stroke-linejoin:miter;stroke-opacity:1"
         d="m 257.51915,145.56815 c -1.42992,-2.95612 -2.54559,-6.8169 -0.17679,-9.61661 2.3176,-3.09381 7.4753,-1.38101 7.25469,2.5778 0.69703,2.69719 0.6606,7.97881 -3.39679,7.33486 -1.22593,-0.0942 -2.44499,-0.45784 -3.6812,-0.29605 z"
         id="path3313" />
      <path
         style="fill:#ffffff;stroke:#000000;stroke-width:0.569606px;stroke-linecap:butt;stroke-linejoin:miter;stroke-miterlimit:4;stroke-dasharray:none;stroke-opacity:1"
         d="m 266.73504,139.54638 c -1.42992,-2.95611 -2.54561,-6.81692 -0.17679,-9.61661 2.3176,-3.09382 7.47529,-1.38102 7.25469,2.5778 0.69705,2.69717 0.6606,7.97879 -3.39678,7.33485 -1.22594,-0.0942 -2.445,-0.45782 -3.68119,-0.29604 z"
         id="path3313-29" />
      <path
         style="fill:#ffffff;stroke:#000000;stroke-width:0.569606px;stroke-linecap:butt;stroke-linejoin:miter;stroke-opacity:1"
         d="m 266.73504,139.54638 c 1.10449,-1.38868 4.28004,-2.10975 4.05885,-3.96287 -1.25261,-1.52745 -3.44683,-4.10329 -5.54176,-2.7854 -0.0946,1.77385 0.85134,3.47716 1.1095,5.2426 0.12456,0.50188 0.24889,1.00392 0.37341,1.50567 z"
         id="path3878" />
      <path
         style="fill:#ffffff;stroke:#000000;stroke-width:0.569606px;stroke-linecap:butt;stroke-linejoin:miter;stroke-opacity:1"
         d="m 266.73502,139.54631 c -1.92393,-1.45953 -3.10708,-4.64982 -5.82717,-4.58405 -1.48991,0.93125 -2.38738,3.62315 -1.51816,5.15715 1.70597,1.10979 3.55689,-0.52754 5.39383,-0.37209 0.65021,-0.0698 1.30168,-0.12763 1.95152,-0.20097 z"
         id="path3579" />
      <path
         style="fill:#ffffff;stroke:#000000;stroke-width:0.569606px;stroke-linecap:butt;stroke-linejoin:miter;stroke-miterlimit:4;stroke-dasharray:none;stroke-opacity:1"
         d="m 288.48811,127.54562 c -1.4413,-0.88877 -3.16444,-1.07463 -4.746,-1.60119 -1.12531,-0.3574 -2.33645,-0.92509 -2.85097,-2.06135 -0.25825,-0.53072 -0.21558,-1.13784 -0.31723,-1.7082 -0.0915,-0.91479 -0.25312,-1.92076 0.22461,-2.75721 0.43846,-0.69742 1.36421,-0.74113 2.09783,-0.62989 0.75546,-0.0427 1.55405,0.0326 2.21282,0.44204 1.19251,0.72292 1.76756,2.08946 2.13236,3.37569 0.28516,1.00241 0.40517,2.04196 0.70306,3.04138 0.16523,0.63732 0.34078,1.27219 0.54341,1.8987 z"
         id="path1964-7" />
      <path
         style="fill:#ffffff;stroke:#000000;stroke-width:0.569606px;stroke-linecap:butt;stroke-linejoin:miter;stroke-miterlimit:4;stroke-dasharray:none;stroke-opacity:1"
         d="m 316.1017,140.74651 c -1.4413,-0.88877 -3.16445,-1.07462 -4.74601,-1.60118 -1.12531,-0.35741 -2.33645,-0.9251 -2.85098,-2.06137 -0.25823,-0.53071 -0.21559,-1.13783 -0.31722,-1.70819 -0.0915,-0.91479 -0.25311,-1.92075 0.22461,-2.75721 0.43846,-0.69743 1.36421,-0.74113 2.09783,-0.62988 0.75546,-0.0427 1.55405,0.0326 2.21283,0.44203 1.1925,0.72292 1.76755,2.08946 2.13236,3.37569 0.28516,1.0024 0.40517,2.04197 0.70305,3.04138 0.16523,0.63732 0.34079,1.27217 0.54341,1.8987 z"
         id="path1964-7-5" />
      <path
         style="fill:#ffffff;stroke:#000000;stroke-width:0.569606px;stroke-linecap:butt;stroke-linejoin:miter;stroke-miterlimit:4;stroke-dasharray:none;stroke-opacity:1"
         d="m 302.37128,112.40671 c 0.008,-3.2125 -2.64878,-6.4118 -6.04901,-5.87172 -3.38422,-0.20613 -5.12956,3.69556 -2.89096,6.15699 1.15273,2.43186 4.7412,4.19828 6.96601,2.14141 0.74632,-0.73517 1.24103,-1.67964 1.97396,-2.42668 z"
         id="path2682-5" />
      <path
         style="fill:#ffffff;stroke:#000000;stroke-width:0.569606px;stroke-linecap:butt;stroke-linejoin:miter;stroke-miterlimit:4;stroke-dasharray:none;stroke-opacity:1"
         d="m 316.10158,140.74648 c -2.87744,-1.42854 -4.55289,-5.23437 -2.55058,-8.0351 1.32752,-3.11977 5.598,-2.93803 6.79995,0.16441 1.66063,2.11777 1.6377,6.11737 -1.19645,7.18882 -0.99119,0.33922 -2.05717,0.35984 -3.05292,0.6818 z"
         id="path2682-5-7" />
      <path
         style="fill:#ffffff;stroke:#000000;stroke-width:0.569606px;stroke-linecap:butt;stroke-linejoin:miter;stroke-miterlimit:4;stroke-dasharray:none;stroke-opacity:1"
         d="m 336.35177,143.04612 c -2.87743,-1.42855 -4.55288,-5.23436 -2.55057,-8.03508 1.32752,-3.11976 5.598,-2.93804 6.79993,0.16439 1.66063,2.11779 1.63771,6.11738 -1.19645,7.18885 -0.99116,0.33924 -2.05715,0.35985 -3.05291,0.6818 z"
         id="path2682-5-7-0" />
      <path
         style="fill:#ffffff;stroke:#000000;stroke-width:0.569606px;stroke-linecap:butt;stroke-linejoin:miter;stroke-miterlimit:4;stroke-dasharray:none;stroke-opacity:1"
         d="m 311.85231,148.61715 c -2.87742,-1.42853 -4.55288,-5.23438 -2.55057,-8.03509 1.32754,-3.11978 5.598,-2.93803 6.79996,0.16441 1.66061,2.11777 1.6377,6.11737 -1.19645,7.18882 -0.99118,0.33925 -2.05716,0.35985 -3.05294,0.68182 z"
         id="path2682-5-7-0-6" />
      <path
         style="fill:#ffffff;stroke:#000000;stroke-width:0.569606px;stroke-linecap:butt;stroke-linejoin:miter;stroke-miterlimit:4;stroke-dasharray:none;stroke-opacity:1"
         d="m 356.83859,144.36864 c -2.87743,-1.42855 -4.55288,-5.23437 -2.55055,-8.03511 1.32752,-3.11976 5.59801,-2.93802 6.79994,0.16441 1.66063,2.1178 1.63771,6.11739 -1.19645,7.18883 -0.99117,0.33925 -2.05715,0.35987 -3.05294,0.68183 z"
         id="path2682-5-7-0-6-3" />
      <path
         style="fill:#ffffff;stroke:#000000;stroke-width:0.569606px;stroke-linecap:butt;stroke-linejoin:miter;stroke-miterlimit:4;stroke-dasharray:none;stroke-opacity:1"
         d="m 344.57687,138.57498 c -2.87743,-1.42853 -4.55288,-5.23437 -2.55058,-8.03511 1.32753,-3.11976 5.59801,-2.93802 6.79997,0.16442 1.66061,2.11777 1.6377,6.11737 -1.19647,7.18882 -0.99114,0.33922 -2.05714,0.35984 -3.05292,0.68182 z"
         id="path2682-5-7-8" />
      <path
         style="fill:#ffffff;stroke:#000000;stroke-width:0.569606px;stroke-linecap:butt;stroke-linejoin:miter;stroke-miterlimit:4;stroke-dasharray:none;stroke-opacity:1"
         d="m 303.5174,115.82422 c 0.008,-3.21252 -2.64877,-6.41181 -6.04901,-5.87175 -3.38419,-0.20614 -5.12957,3.69557 -2.89093,6.15702 1.15273,2.43186 4.7412,4.19827 6.96598,2.14141 0.74634,-0.73518 1.24105,-1.67966 1.97396,-2.42668 z"
         id="path2682-5-6" />
      <path
         style="fill:#ffffff;stroke:#000000;stroke-width:0.569606px;stroke-linecap:butt;stroke-linejoin:miter;stroke-miterlimit:4;stroke-dasharray:none;stroke-opacity:1"
         d="m 316.10158,140.74648 c 0.008,-3.2125 -2.6488,-6.4118 -6.04903,-5.87174 -3.3842,-0.20613 -5.12955,3.69558 -2.89094,6.15701 1.15273,2.43185 4.74118,4.19825 6.966,2.14141 0.74632,-0.7352 1.24102,-1.67965 1.97397,-2.42668 z"
         id="path2682-5-6-4" />
      <path
         style="fill:#ffffff;stroke:#000000;stroke-width:0.569606px;stroke-linecap:butt;stroke-linejoin:miter;stroke-miterlimit:4;stroke-dasharray:none;stroke-opacity:1"
         d="m 273.88229,131.07476 c 0.008,-3.21249 -2.64879,-6.41177 -6.04902,-5.87171 -3.3842,-0.20613 -5.12956,3.69556 -2.89096,6.15699 1.15273,2.43185 4.74121,4.19827 6.96601,2.14143 0.74633,-0.7352 1.24103,-1.67965 1.97397,-2.42671 z"
         id="path2682-5-6-1" />
      <path
         style="fill:#ffffff;stroke:#000000;stroke-width:0.569606px;stroke-linecap:butt;stroke-linejoin:miter;stroke-miterlimit:4;stroke-dasharray:none;stroke-opacity:1"
         d="m 356.83859,144.36864 c 0.008,-3.21251 -2.64876,-6.4118 -6.04899,-5.87176 -3.38419,-0.20612 -5.12957,3.69559 -2.89096,6.15701 1.15276,2.43186 4.74121,4.19828 6.96599,2.14144 0.74634,-0.7352 1.24105,-1.67969 1.97396,-2.42669 z"
         id="path2682-5-6-1-2" />
      <path
         style="fill:#ffffff;stroke:#000000;stroke-width:0.569606px;stroke-linecap:butt;stroke-linejoin:miter;stroke-miterlimit:4;stroke-dasharray:none;stroke-opacity:1"
         d="m 296.96267,118.84047 c -2.88256,1.71576 -7.96924,3.02338 -9.76543,-0.80124 -1.75979,-3.87184 2.75742,-7.10663 6.23407,-5.34725 3.04166,0.74745 3.41345,3.51183 3.53091,6.14876 z"
         id="path2981-9" />
      <path
         style="fill:#ffffff;stroke:#000000;stroke-width:0.569606px;stroke-linecap:butt;stroke-linejoin:miter;stroke-miterlimit:4;stroke-dasharray:none;stroke-opacity:1"
         d="m 301.77639,125.1695 c -2.00581,-2.60003 -4.9614,-5.32308 -8.52451,-4.45458 -3.80331,0.69119 -4.57528,6.07071 -0.93501,7.64208 2.10159,1.82862 6.84305,4.15575 8.0797,0.2381 0.46353,-1.13881 0.68278,-2.39193 1.37982,-3.4256 z"
         id="path3313-2" />
      <path
         style="fill:#ffffff;stroke:#000000;stroke-width:0.569606px;stroke-linecap:butt;stroke-linejoin:miter;stroke-miterlimit:4;stroke-dasharray:none;stroke-opacity:1"
         d="m 308.27513,147.81219 c -2.00582,-2.60001 -4.96139,-5.32307 -8.52452,-4.45457 -3.80329,0.6912 -4.57527,6.07073 -0.935,7.64207 2.10158,1.82863 6.84305,4.15574 8.07969,0.23811 0.46354,-1.1388 0.68279,-2.39193 1.37983,-3.42561 z"
         id="path3313-2-31" />
      <path
         style="fill:#ffffff;stroke:#000000;stroke-width:0.569606px;stroke-linecap:butt;stroke-linejoin:miter;stroke-miterlimit:4;stroke-dasharray:none;stroke-opacity:1"
         d="m 306.71837,124.72724 c -1.42992,-2.95612 -2.54563,-6.81691 -0.17679,-9.61663 2.31762,-3.09378 7.47528,-1.38098 7.2547,2.57784 0.69705,2.69716 0.66061,7.97878 -3.39679,7.33484 -1.22594,-0.0942 -2.44501,-0.45784 -3.6812,-0.29605 z"
         id="path3313-2-3" />
      <path
         style="fill:#ffffff;stroke:#000000;stroke-width:0.569606px;stroke-linecap:butt;stroke-linejoin:miter;stroke-miterlimit:4;stroke-dasharray:none;stroke-opacity:1"
         d="m 325.14242,138.02797 c -1.42993,-2.95613 -2.54561,-6.8169 -0.17681,-9.61663 2.31764,-3.09378 7.47533,-1.38098 7.25474,2.57784 0.69704,2.69716 0.66059,7.97878 -3.3968,7.33483 -1.22594,-0.0942 -2.44501,-0.4578 -3.68122,-0.29604 z"
         id="path3313-2-3-9" />
      <path
         style="fill:#ffffff;stroke:#000000;stroke-width:0.569606px;stroke-linecap:butt;stroke-linejoin:miter;stroke-miterlimit:4;stroke-dasharray:none;stroke-opacity:1"
         d="m 273.88233,131.07483 c -1.73582,0.3677 -3.7997,2.88654 -5.35875,1.8607 -0.80683,-1.80309 -2.13101,-4.91692 -0.0165,-6.20235 1.62918,0.70795 2.73046,2.31517 4.19457,3.33488 0.39337,0.33558 0.78695,0.67118 1.18019,1.00677 z"
         id="path3878-2" />
      <path
         style="fill:#ffffff;stroke:#000000;stroke-width:0.569606px;stroke-linecap:butt;stroke-linejoin:miter;stroke-miterlimit:4;stroke-dasharray:none;stroke-opacity:1"
         d="m 273.88229,131.07476 c -0.44621,-2.37331 -2.77182,-4.8571 -1.49768,-7.26129 1.49881,-0.91684 4.30809,-0.51711 5.29212,0.94589 0.23067,2.02206 -2.06109,2.94647 -2.74272,4.65935 -0.35296,0.55051 -0.69577,1.10749 -1.05168,1.65612 z"
         id="path3579-8" />
      <path
         style="fill:#ffffff;stroke:#000000;stroke-width:0.569606px;stroke-linecap:butt;stroke-linejoin:miter;stroke-miterlimit:4;stroke-dasharray:none;stroke-opacity:1"
         d="m 335.28409,141.7593 c 1.1045,-1.38867 4.28005,-2.10974 4.05885,-3.96286 -1.25267,-1.5274 -3.44681,-4.10327 -5.54174,-2.7854 -0.0946,1.77384 0.85135,3.47713 1.10949,5.24261 0.12457,0.50187 0.24891,1.00389 0.3734,1.50565 z"
         id="path3878-2-0" />
      <path
         style="fill:#ffffff;stroke:#000000;stroke-width:0.569606px;stroke-linecap:butt;stroke-linejoin:miter;stroke-miterlimit:4;stroke-dasharray:none;stroke-opacity:1"
         d="m 335.28409,141.75924 c -1.92396,-1.45956 -3.10701,-4.64987 -5.82717,-4.58406 -1.4899,0.93125 -2.38737,3.62316 -1.51816,5.15716 1.70597,1.10977 3.55688,-0.52756 5.39384,-0.37212 0.65021,-0.0698 1.30167,-0.12763 1.95152,-0.20096 z"
         id="path3579-8-3" />
      <path
         style="fill:#ffffff;stroke:#000000;stroke-width:0.569606px;stroke-linecap:butt;stroke-linejoin:miter;stroke-miterlimit:4;stroke-dasharray:none;stroke-opacity:1"
         d="m 344.57687,138.57498 c -1.73585,0.36773 -3.79969,2.88656 -5.35875,1.86073 -0.80684,-1.80312 -2.13101,-4.91692 -0.0165,-6.20238 1.62921,0.70797 2.73048,2.31517 4.19456,3.33491 0.39337,0.33558 0.78696,0.6712 1.18024,1.00674 z"
         id="path3878-2-0-6" />
      <path
         style="fill:#ffffff;stroke:#000000;stroke-width:0.569606px;stroke-linecap:butt;stroke-linejoin:miter;stroke-miterlimit:4;stroke-dasharray:none;stroke-opacity:1"
         d="m 344.57682,138.57494 c -0.44621,-2.37333 -2.77185,-4.8571 -1.49767,-7.26129 1.49879,-0.91687 4.30806,-0.51711 5.29209,0.94588 0.23069,2.02206 -2.0611,2.94648 -2.74273,4.65933 -0.35294,0.55053 -0.69575,1.10752 -1.05165,1.65612 z"
         id="path3579-8-3-1" />
    </g>
  </g>
</svg>
